<svg width="75" height="75" viewBox="0 0 75 75" fill="none" xmlns="http://www.w3.org/2000/svg">
<rect width="75" height="75" rx="15" fill="white"/>
<path fill-rule="evenodd" clip-rule="evenodd" d="M36.4779 20.951C34.2465 21.2383 32.0375 21.9797 30.2505 23.0405L30.1134 23.1218L30.3615 23.3201C32.2314 24.8146 33.2532 27.661 32.3891 28.9669C32.0548 29.4722 31.1549 29.64 30.254 29.365C29.6307 29.1748 29.5574 29.1497 29.3202 29.0446C28.8445 28.8338 28.3227 28.6204 28.2837 28.6204C28.2613 28.6204 28.0351 28.5425 27.7811 28.4472C27.0344 28.1671 26.0995 28.0641 25.1498 28.1578L24.8469 28.1876L24.638 28.5387C24.1386 29.3775 23.8198 30.0189 23.4919 30.8435C23.3044 31.316 23.223 31.4363 23.1112 31.4073C23.008 31.38 23.0493 31.4683 23.1875 31.5695C23.2961 31.649 23.3022 31.6482 23.4871 31.5398C23.8604 31.3213 25.4005 30.8318 26.0931 30.7115C26.2052 30.6923 26.5968 30.6157 26.9637 30.5415C28.8056 30.1688 31.3606 30.4156 33.9781 31.2189C34.1923 31.2845 34.5325 31.3558 34.7339 31.3768C34.9356 31.3982 35.2507 31.4393 35.4342 31.4683C37.0216 31.7194 37.7822 30.6469 37.0021 29.258C36.1748 27.7851 35.8608 26.8532 35.8581 25.8636C35.8565 25.1839 35.8421 25.2599 36.1351 24.3963C36.5104 23.2889 37.715 21.7409 38.6938 21.1079C38.8574 21.0022 38.9913 20.9083 38.9913 20.8995C38.9913 20.8571 36.869 20.9006 36.4779 20.951ZM13.2598 21.0174C13.0111 21.1175 12.9351 21.5755 13.0682 22.1721C13.4358 23.82 15.056 26.442 17.6895 29.6502C17.9235 29.9351 18.2151 30.2945 18.3373 30.4487C18.4597 30.6029 18.7559 30.9598 18.9957 31.2421C19.2356 31.5244 19.481 31.8152 19.5413 31.8885C19.8313 32.242 20.656 33.1803 21.0943 33.6558C21.3632 33.9479 21.6708 34.2899 21.7778 34.4158C21.8848 34.542 22.7382 35.4456 23.6744 36.424C26.2297 39.0937 27.7987 40.6246 30.7331 43.3109C31.2646 43.7969 31.6992 44.2187 31.6992 44.2478C31.6992 44.4858 30.7771 44.834 29.0313 45.2552C28.8232 45.3054 28.523 45.3835 28.3643 45.4286C28.2053 45.474 27.8851 45.553 27.6528 45.6044C27.4204 45.6559 27.0704 45.7362 26.8745 45.7832C26.679 45.8301 26.369 45.9006 26.1854 45.9401C26.0021 45.9793 25.7218 46.0404 25.563 46.0756C25.1546 46.1663 24.212 46.3365 23.1395 46.5134C22.9194 46.5497 22.5792 46.5921 22.3837 46.6076C22.1881 46.623 21.7885 46.6641 21.4958 46.6988C20.9118 46.7682 19.4895 46.7786 19.1377 46.7162C19.0155 46.6943 18.7959 46.6569 18.6497 46.6329C17.598 46.4598 16.927 45.4638 17.2475 44.552C17.3659 44.2147 17.3985 44.2006 16.5855 44.842C15.393 45.7832 14.4315 46.849 14.2197 47.4645C13.7498 48.8305 15.0926 49.1245 19.5157 48.624C19.7481 48.5976 20.1381 48.5402 20.3828 48.4964C20.6274 48.4524 20.9974 48.3929 21.2053 48.3641C21.4131 48.3353 21.7933 48.2729 22.0502 48.2251C22.3068 48.1776 22.687 48.1075 22.8951 48.0693C23.1029 48.0312 23.4031 47.9725 23.5621 47.9389C23.7208 47.9055 24.0111 47.8447 24.2066 47.8036C24.9977 47.6382 27.4972 47.027 28.0866 46.8546C28.2514 46.8066 28.8867 46.6268 29.4982 46.4552C30.1094 46.2837 30.9097 46.0511 31.2766 45.9377C33.2012 45.3443 33.0897 45.3451 33.7222 45.9214C34.2521 46.404 34.7088 46.7983 35.4086 47.377C35.6548 47.5808 35.9366 47.8143 36.0345 47.8959C36.1321 47.9775 36.2722 48.0901 36.3456 48.1464C36.4189 48.2027 36.4891 48.2603 36.5014 48.275C36.5136 48.2894 36.7335 48.4674 36.9904 48.6701C37.2473 48.8731 37.528 49.0962 37.6147 49.1658C37.7011 49.2357 37.9732 49.4486 38.2192 49.6391C38.4652 49.8299 38.9217 50.1858 39.2338 50.4304C39.546 50.675 39.8667 50.925 39.9464 50.9861C40.0262 51.0475 40.2591 51.2265 40.464 51.3842C40.8799 51.7043 42.3721 52.8243 42.6818 53.0487C43.138 53.3792 43.464 53.6177 43.5273 53.6676C43.5644 53.697 43.6828 53.7807 43.7903 53.8541C43.8981 53.9275 44.1022 54.0675 44.2439 54.1654C47.3306 56.2963 49.2414 57.4059 50.8717 58.0134C51.0595 58.0832 51.2497 58.162 51.294 58.1881C51.3775 58.2369 51.9965 58.4293 52.3086 58.5032C53.8064 58.8583 54.5486 58.5304 54.4992 57.5347C54.4704 56.9478 54.353 56.6381 53.6282 55.2326C53.4284 54.845 52.9014 54.0985 52.8281 54.099C52.8113 54.099 52.7603 54.1897 52.7147 54.3004C52.3455 55.1985 50.824 55.4799 49.4628 54.9015C49.414 54.8807 49.2438 54.8196 49.0848 54.7655C48.8206 54.6755 48.5101 54.5486 47.9733 54.3111C47.6785 54.1807 46.8349 53.7631 46.5281 53.5956C46.3814 53.5155 46.1042 53.3648 45.9124 53.2605C44.9418 52.7336 42.9134 51.4415 41.259 50.2965C40.127 49.5129 39.8909 49.3459 39.2135 48.8518C38.9489 48.6586 38.6138 48.4156 38.2488 48.1517C37.3308 47.4882 35.308 45.9019 34.7782 45.4297C34.4748 45.1592 34.478 45.0132 34.7899 44.9001C34.8873 44.8649 35.1874 44.751 35.4564 44.6469C35.7253 44.5432 36.2455 44.3585 36.6124 44.2369C36.9792 44.1152 37.3594 43.9845 37.4573 43.9461C37.5552 43.9077 37.9452 43.7665 38.3243 43.6329C38.9404 43.4154 39.8768 43.0721 41.1923 42.5812C42.2288 42.1943 43.8042 41.5749 44.1377 41.4231C44.2412 41.3758 44.338 41.3374 44.3524 41.3374C44.4095 41.3374 47.3909 40.0784 48.4711 39.598C50.3851 38.7472 54.0766 36.9485 55.6656 36.0926C56.632 35.5724 58.0315 34.7981 58.2001 34.6909C58.2858 34.6365 58.6358 34.4262 58.9784 34.2232C62.1814 32.3258 64.6431 30.3644 65.48 29.0427C65.8839 28.4048 65.9213 28.1655 65.6545 27.9195C65.1671 27.4705 64.3979 27.3211 62.6243 27.3318C61.689 27.3374 60.728 27.3929 61.2023 27.4139C61.8026 27.4404 62.5982 27.8699 62.8116 28.2826C62.9701 28.5894 62.8092 29.3642 62.4706 29.9223C61.5422 31.4534 58.1169 33.7862 53.0866 36.3132C51.2305 37.2459 47.9482 38.7434 46.7061 39.2247C46.5593 39.2815 46.1992 39.4304 45.9057 39.5555C45.6122 39.6804 45.1419 39.8738 44.8607 39.9851C44.5795 40.096 44.2393 40.2356 44.1049 40.2951C43.9701 40.3543 43.73 40.4503 43.5713 40.508C43.4123 40.5659 42.9921 40.7243 42.6375 40.8601C41.8636 41.1565 40.7484 41.5687 40.2586 41.7397C40.063 41.8078 39.6127 41.9657 39.2581 42.0903C38.6634 42.2995 36.0948 43.1537 34.8297 43.5632C34.2241 43.7593 33.2828 44.005 33.1366 44.005C33.0835 44.005 32.9136 43.8986 32.7586 43.7681C32.6038 43.6379 32.297 43.3952 32.0769 43.229C31.8568 43.0627 31.6567 42.9043 31.6325 42.8768C31.6079 42.8493 31.4679 42.7269 31.3214 42.6047C30.9612 42.3043 29.7495 41.2328 29.2089 40.7371C29.0489 40.5904 28.7295 40.3001 28.4993 40.0923C28.2691 39.8845 28.0169 39.6542 27.9396 39.5809C27.8619 39.5075 27.5914 39.2575 27.338 39.0252C26.1742 37.9575 24.9019 36.7508 24.1178 35.9712C23.5399 35.3966 22.4995 34.3211 21.6722 33.4439C21.1893 32.9314 19.2793 30.7272 18.9869 30.3446C17.6519 28.598 16.9839 27.6839 16.6378 27.129C15.1958 24.8173 14.8098 23.4417 15.3589 22.572C15.691 22.0461 16.6253 22.0291 18.1038 22.5221C18.7951 22.7526 18.7668 22.7257 17.8595 22.2881C15.8057 21.2983 13.8819 20.7666 13.2598 21.0174ZM42.6319 21.9528C41.9863 22.0003 41.0069 22.2161 40.3293 22.4602C37.8977 23.3355 37.0907 26.1037 38.6888 28.0857C38.7573 28.1708 38.8134 28.2658 38.8134 28.297C38.8134 28.3282 38.8304 28.3536 38.8515 28.3536C38.895 28.3536 39.4361 29.1702 39.4361 29.2361C39.4361 29.2599 39.506 29.4429 39.5916 29.6427C40.0852 30.796 39.9411 31.8989 39.197 32.6609C39.1074 32.7527 39.0465 32.8404 39.062 32.8559C39.0775 32.8714 38.9726 32.9581 38.8294 33.0491C38.6861 33.1401 38.5031 33.271 38.4228 33.3407C38.3425 33.41 38.2584 33.4671 38.2358 33.4671C38.2134 33.4671 38.0986 33.524 37.9807 33.5933C37.0232 34.1579 35.4937 34.2768 33.5584 33.9375C33.0859 33.8545 32.4195 33.7635 32.0769 33.7353C31.7346 33.7067 31.3243 33.6654 31.1656 33.6429C29.9656 33.4746 28.7514 33.4967 27.4305 33.7115C26.751 33.8217 26.1601 33.9644 25.9704 34.0639L25.857 34.1234L26.3356 34.5844C26.5987 34.8382 27.172 35.3958 27.6093 35.8237C28.0466 36.2516 28.5804 36.7689 28.7957 36.973C29.3111 37.4623 31.3542 39.4403 31.8109 39.8922C32.0086 40.0878 32.3066 40.3751 32.4729 40.5304L32.7757 40.8126L33.0803 40.672C33.6014 40.4319 34.5119 39.9562 34.7526 39.7983C34.8788 39.7156 34.9959 39.6476 35.0122 39.6476C35.0287 39.6476 35.1562 39.5675 35.2955 39.4699C35.435 39.372 35.5732 39.2919 35.6028 39.2919C35.6324 39.2919 35.6564 39.2762 35.6564 39.2567C35.6564 39.2373 35.7877 39.1447 35.9481 39.051C36.1084 38.9571 36.2634 38.8565 36.2925 38.8275C36.3218 38.7984 36.4056 38.736 36.479 38.6887C36.5523 38.6415 36.6524 38.57 36.7015 38.5297C36.7503 38.4894 36.9904 38.2971 37.235 38.1018C37.762 37.6813 38.2414 37.187 38.6261 36.6678C38.7798 36.4602 38.9598 36.2209 39.0263 36.1358C39.3624 35.7052 39.9624 34.6058 40.095 34.1784C40.1214 34.0928 40.2124 33.8028 40.297 33.5338C40.3816 33.2646 40.4613 32.9645 40.4741 32.8669C40.4872 32.7689 40.5286 32.5088 40.5664 32.2887C40.6865 31.5887 40.6366 30.9657 40.3623 29.7321C40.2895 29.405 40.2634 29.1025 40.2468 28.3912C40.2079 26.7232 40.3485 26.1222 41.0931 24.7722C41.4212 24.1778 42.3667 23.1981 42.9265 22.8732C43.0977 22.7737 43.3877 22.5979 43.5713 22.4826C43.7546 22.3671 44.0096 22.2385 44.1382 22.1969C44.4165 22.1067 44.4189 22.0998 44.2049 22.0077C44.0147 21.9256 43.3277 21.9018 42.6319 21.9528ZM28.8533 23.9534C28.7677 24.0255 28.5177 24.225 28.2976 24.3971C27.7291 24.8416 26.8919 25.6094 26.9319 25.6494C26.9506 25.6681 27.1352 25.7444 27.3425 25.8188C27.5498 25.8935 27.8043 25.9941 27.9081 26.0424C28.0116 26.0907 28.1157 26.1304 28.1389 26.1304C28.1623 26.1304 28.3176 26.1979 28.4841 26.2806C28.6506 26.3633 28.8328 26.4452 28.8891 26.4623C28.9454 26.4794 29.1124 26.5618 29.2602 26.6453C29.408 26.7288 29.5467 26.7974 29.5686 26.7974C29.5905 26.7974 29.83 26.9089 30.1011 27.0452C30.8286 27.4113 31.0199 27.4025 31.0954 27.0002C31.1234 26.8508 30.9666 26.0552 30.8937 25.977C30.8718 25.9538 30.8542 25.9082 30.8542 25.8756C30.8542 25.6011 29.2882 23.8096 29.0574 23.8203C29.0307 23.8216 28.939 23.8814 28.8533 23.9534ZM48.5069 25.5115C46.0943 25.7753 44.5336 26.7326 43.7268 28.4432L43.5489 28.8205L43.5531 29.4653L43.5574 30.1099L43.7599 30.6658C44.2191 31.927 44.583 32.5603 45.4831 33.6651C46.141 34.4724 46.6914 35.3883 46.8464 35.9333C46.8813 36.0563 46.9318 36.2329 46.9584 36.3258C47.0006 36.4728 46.9961 36.5027 46.923 36.5584C46.8771 36.5936 46.9894 36.5598 47.1729 36.4835C47.3562 36.4072 47.6764 36.2748 47.8842 36.1895C48.092 36.1041 48.3823 35.9798 48.529 35.9131C48.6758 35.8466 48.8396 35.7781 48.8932 35.7613C48.9866 35.7316 48.9903 35.7076 48.9914 35.1484C48.9948 33.0806 50.0391 30.4927 51.4923 28.9499C51.6843 28.7458 51.8418 28.5571 51.8418 28.5307C51.8418 28.3765 51.0483 27.2045 50.563 26.6416C50.4785 26.544 50.3467 26.3903 50.2696 26.3001C50.1927 26.2102 49.9838 25.985 49.8054 25.7999L49.4812 25.4635L49.1608 25.4691C48.9844 25.4723 48.6902 25.4912 48.5069 25.5115ZM53.2776 32.1623C53.0663 32.7479 52.9532 33.3055 52.9532 33.7611V34.0834L53.0757 34.0466C53.3657 33.9596 53.8003 33.7233 53.7616 33.6734C53.7095 33.6067 53.6202 33.2369 53.6202 33.0888C53.6202 32.973 53.4166 32.2098 53.3552 32.0956C53.3328 32.054 53.3096 32.0737 53.2776 32.1623ZM23.0728 40.4397C23.0728 40.6518 23.4853 41.7701 23.8876 42.649C24.1954 43.3218 24.2648 43.4272 24.3995 43.4264C24.9593 43.4229 26.6368 43.1737 26.7265 43.0806C26.754 43.0521 26.4282 42.7962 25.5219 42.1343C24.8413 41.6373 23.7126 40.7942 23.5728 40.679C23.4933 40.6131 23.4132 40.5592 23.3951 40.5592C23.3767 40.5592 23.3169 40.5141 23.262 40.4591C23.1408 40.3383 23.0728 40.3311 23.0728 40.4397ZM50.5932 41.0181C50.408 41.1082 50.1879 41.2104 50.1042 41.2454C49.95 41.3099 49.6018 41.4663 49.096 41.6986C48.9428 41.7691 48.8028 41.8264 48.7846 41.8267C48.7662 41.827 48.6912 41.8585 48.6179 41.8969C48.5445 41.9353 48.2945 42.0473 48.0622 42.1461C47.8298 42.2448 47.5897 42.3509 47.5286 42.3824C47.4675 42.4136 47.3373 42.4723 47.2396 42.5126C47.0652 42.5847 47.0617 42.5903 47.0582 42.8176C47.0545 43.0491 46.8144 43.6953 46.6314 43.9661C46.5881 44.0301 46.5313 44.1387 46.5052 44.2073C46.451 44.35 45.8555 45.263 45.6218 45.5615C44.9589 46.4091 43.472 47.7484 42.6781 48.2134C42.5903 48.2646 42.4804 48.339 42.4334 48.3783C42.3867 48.4177 42.3115 48.4764 42.2667 48.5087C42.1784 48.5722 42.2704 48.6736 42.7122 48.9993C42.8056 49.0682 43.0689 49.2683 43.2976 49.4441C43.5259 49.6196 43.7524 49.7858 43.8005 49.8133C43.8487 49.8408 43.9419 49.9123 44.0075 49.9723C44.0734 50.0323 44.2871 50.1983 44.4826 50.341C44.6785 50.484 44.8644 50.6209 44.8962 50.6452C44.9383 50.6774 44.9605 50.6657 44.977 50.6017C44.9911 50.5483 45.1344 50.4424 45.3417 50.3325C45.8945 50.0393 46.1146 49.915 46.3502 49.7632C46.4726 49.6842 46.7253 49.522 46.9118 49.4027C48.3471 48.4836 50.3096 46.567 51.0651 45.3467C51.0905 45.3059 51.2289 45.0925 51.3733 44.8724C51.8594 44.1299 52.6888 42.5662 52.6851 42.3995C52.6843 42.3656 52.5125 42.2077 52.3033 42.0487C51.9309 41.7656 51.1302 40.9757 51.1302 40.8911C51.1302 40.8081 50.9267 40.8564 50.5932 41.0181ZM36.841 50.9192C36.8279 50.9536 36.7511 51.0155 36.6702 51.0571C36.5182 51.1355 35.9411 51.5912 35.8405 51.7123C35.7912 51.7718 35.8035 51.7844 35.931 51.8041C36.3074 51.8617 37.2791 51.9658 37.6937 51.9927L38.152 52.0226L38.4641 52.2419C38.636 52.3625 38.788 52.4495 38.8024 52.4351C38.8166 52.4206 38.8072 52.4092 38.7816 52.4092C38.756 52.4092 38.573 52.2691 38.375 52.0978C38.1768 51.9266 37.9957 51.7865 37.9719 51.7865C37.9484 51.7865 37.9031 51.7515 37.8711 51.7089C37.8148 51.6336 37.5352 51.3991 37.2126 51.1569C37.127 51.0923 37.0139 50.9987 36.961 50.9482C36.8847 50.8757 36.8599 50.8698 36.841 50.9192Z" fill="#FCDEC2"/>
<path fill-rule="evenodd" clip-rule="evenodd" d="M36.768 20.0408C35.4714 20.1947 34.3106 20.4425 33.0772 20.8291C32.7226 20.9404 32.3337 21.078 32.2131 21.1351C32.0922 21.1925 31.9668 21.2392 31.9343 21.2392C31.8548 21.2392 30.2378 22.0302 30.1033 22.1351C30.0449 22.1804 29.9598 22.2175 29.9144 22.2175C29.8688 22.2175 29.8314 22.2338 29.8314 22.2538C29.8314 22.2735 29.7663 22.3242 29.6868 22.3658C29.3469 22.5443 28.6336 23.0176 28.5476 23.1219C28.514 23.1625 28.4617 23.1958 28.4319 23.1958C28.4017 23.1958 28.3249 23.2441 28.2611 23.3031C28.1974 23.3623 28.0994 23.4423 28.0434 23.481C27.4021 23.9247 26.1487 25.1351 25.4838 25.9525C25.295 26.1849 25.1178 26.3896 25.0906 26.4072C25.0631 26.425 25.0156 26.5 24.9852 26.5739C24.9545 26.6481 24.9145 26.7084 24.8964 26.7084C24.8673 26.7084 24.4159 27.3713 24.3665 27.4866C24.3561 27.5111 24.2707 27.6435 24.1768 27.7811C24.0832 27.9185 24.0064 28.0508 24.0064 28.0751C24.0064 28.0994 23.9698 28.1672 23.925 28.2253C23.7961 28.3934 23.0726 29.825 23.0726 29.9122C23.0726 29.9352 23.0008 30.1091 22.9131 30.2988C22.6887 30.7833 22.6649 31.0578 22.8338 31.2174C23.1505 31.517 23.2823 31.4292 23.4973 30.7769C23.6675 30.2604 24.3025 29.0198 24.74 28.3486L24.8734 28.144L25.4337 28.1173C26.7068 28.0562 27.5843 28.2539 29.1645 28.9571C30.956 29.7543 32.2251 29.611 32.5506 28.5748C32.8798 27.5263 32.5484 26.1889 31.5768 24.6453C31.3388 24.2672 30.7262 23.6144 30.3093 23.2948C30.1932 23.206 30.0982 23.1222 30.0985 23.1088C30.0996 23.0437 32.0991 22.0396 32.2275 22.0396C32.2565 22.0396 32.3547 22.0019 32.4454 21.9558C32.9145 21.7178 34.9314 21.1522 35.6477 21.058C35.8358 21.0332 36.2098 20.9839 36.4788 20.9481C37.6131 20.7976 39.1795 20.8193 40.3472 21.0009C40.5918 21.0391 40.9019 21.0847 41.0366 21.1026C41.3151 21.1397 41.3221 21.1357 40.6364 21.3278C37.8106 22.1185 36.1962 24.9433 37.1732 27.3876C37.2242 27.5154 37.2957 27.7 37.3317 27.7979C37.3677 27.8956 37.4683 28.0858 37.555 28.2203C37.869 28.7066 38.0734 29.0009 38.1881 29.1319C38.5341 29.5267 38.9508 30.37 39.0407 30.8575C39.22 31.8318 38.3708 32.7002 36.8982 33.0486C36.0199 33.2564 35.3807 33.2188 33.3218 32.8378C32.9305 32.7655 32.3803 32.6882 32.0991 32.666C31.8177 32.6439 31.2574 32.5927 30.854 32.5521C29.0788 32.3739 26.7908 32.6732 25.5316 33.2487C25.1632 33.4168 25.1765 33.4042 25.2667 33.5038C25.3072 33.5488 25.3302 33.5961 25.3174 33.6086C25.3046 33.6214 25.3745 33.6852 25.4729 33.7503C25.5711 33.8154 25.6516 33.8959 25.6516 33.9293C25.6516 34.0504 25.7768 34.1078 25.9086 34.0472C26.6596 33.7025 29.0834 33.4323 30.3426 33.5528C30.6361 33.5809 31.1664 33.6225 31.521 33.6454C31.8756 33.6684 32.526 33.7455 32.9662 33.8172C35.5431 34.2361 36.4134 34.2236 37.563 33.7516C38.6918 33.2882 39.5298 32.4526 39.8091 31.5122C40.0668 30.644 39.6367 29.3995 38.6067 28.0316C37.0641 25.9838 37.9554 23.2054 40.4139 22.3978C41.8695 21.9195 43.4945 21.7658 44.3048 22.0297C45.2455 22.3362 47.1487 23.4461 48.262 24.3371L48.7511 24.7288L48.5067 24.7637C48.2877 24.7949 47.9075 24.8571 47.1743 24.9817C46.4081 25.1119 45.3196 25.6177 44.6158 26.1708C43.2995 27.2049 42.7934 28.1154 42.7966 29.443L42.7982 30.1099L43.014 30.7518C43.4241 31.9713 44.0278 32.9889 44.9016 33.9341C45.6897 34.7865 46.2766 35.7549 46.4156 36.432C46.4647 36.6713 46.6392 36.8485 46.6392 36.6591C46.6392 36.6399 46.6541 36.6289 46.6725 36.6348C46.7187 36.6495 46.9948 36.5307 46.9945 36.4963C46.994 36.4547 46.8385 35.9718 46.728 35.6685C46.6744 35.522 46.5626 35.2859 46.4794 35.1437C46.3959 35.0015 46.3278 34.8732 46.3278 34.8585C46.3278 34.8441 46.2673 34.7499 46.1931 34.6499C46.1189 34.5496 45.8964 34.2476 45.6987 33.9784C45.5008 33.7094 45.2927 33.4395 45.2359 33.3781C44.8365 32.9478 44.3114 32.0727 43.9814 31.2883C43.328 29.7346 43.3275 29.0129 43.9787 27.9215C44.2685 27.4359 45.5827 26.2193 45.8175 26.2193C45.8337 26.2193 45.9058 26.1777 45.9773 26.1268C46.3993 25.8264 48.174 25.4638 49.2241 25.4635H49.5189L49.831 25.7858C50.7288 26.7132 51.6671 28.0351 52.2796 29.2357C52.7161 30.091 52.7158 29.9611 52.282 30.4071C51.2578 31.4604 50.582 32.6871 50.3043 33.9968C50.2496 34.255 50.2133 35.1568 50.2576 35.1568C50.2667 35.1568 50.3443 35.1274 50.4297 35.092C50.5153 35.0562 50.5943 35.0359 50.6053 35.0471C50.6165 35.0581 50.724 35.0197 50.8443 34.9615L51.0633 34.8558L51.1468 34.2393C51.3016 33.0964 51.6689 32.2872 52.5963 31.0464C52.8404 30.7198 52.8919 30.6718 52.9354 30.7313C53.0699 30.9148 53.4482 32.2096 53.7352 33.4672C53.7771 33.6505 53.8201 33.7753 53.8307 33.7447C53.8414 33.714 53.8684 33.7001 53.8908 33.714C53.9129 33.7279 53.9313 33.7199 53.9313 33.6961C53.9313 33.647 54.2699 33.4739 54.4235 33.4443C54.6404 33.4024 54.6364 33.0033 54.4115 32.2442C54.339 31.9999 54.2627 31.7197 54.2416 31.6218C54.2208 31.5239 54.153 31.3099 54.0911 31.1461C54.029 30.9823 53.938 30.7289 53.8889 30.5832C53.8398 30.4373 53.7494 30.2233 53.6877 30.1073C53.6261 29.9915 53.5757 29.8698 53.5757 29.8367C53.5757 29.8037 53.5055 29.6425 53.4199 29.4782C53.3342 29.3141 53.2643 29.1586 53.2643 29.1324C53.2643 29.1065 53.1942 28.979 53.1088 28.8491C53.0232 28.7189 52.953 28.5914 52.953 28.5655C52.953 28.5396 52.8831 28.4129 52.7975 28.284C52.7118 28.1552 52.6419 28.0354 52.6419 28.018C52.6419 28.0004 52.5718 27.8889 52.4861 27.7697C52.4005 27.6507 52.3306 27.5362 52.3306 27.5154C52.3306 27.4949 52.2887 27.4298 52.2375 27.3711C52.1865 27.3124 52.0635 27.1392 51.9645 26.9864C51.8656 26.8335 51.7706 26.7084 51.7535 26.7084C51.7364 26.7084 51.6988 26.6569 51.67 26.5939C51.6415 26.5307 51.5689 26.4258 51.5089 26.3605C51.4491 26.2951 51.2215 26.0315 51.0033 25.7746C50.4684 25.1452 50.0469 24.7144 49.4626 24.1992C48.802 23.6168 48.7247 23.5522 48.6198 23.4962C48.5702 23.4695 48.4728 23.3911 48.4034 23.3217C48.3341 23.2524 48.249 23.1958 48.2143 23.1958C48.1793 23.1958 48.1508 23.1798 48.1508 23.1603C48.1508 23.1222 47.5481 22.7068 47.2456 22.5363C47.1442 22.4792 46.9977 22.384 46.9198 22.325C46.8422 22.2658 46.7552 22.2175 46.7267 22.2175C46.6984 22.2175 46.6168 22.1759 46.5453 22.1252C46.3777 22.0059 44.8399 21.2392 44.7682 21.2392C44.738 21.2392 44.5916 21.1832 44.4424 21.1146C43.9318 20.8801 42.2385 20.3724 41.7337 20.3028C41.5824 20.2817 41.1686 20.212 40.8141 20.1475C40.109 20.0194 37.5224 19.9511 36.768 20.0408ZM13.0832 20.2817C12.1943 20.4586 11.8093 21.3864 12.0907 22.6737C12.2871 23.5717 13.3126 25.6994 13.9858 26.6054C14.0434 26.6833 14.0909 26.7585 14.0909 26.7727C14.0909 26.8217 15.2487 28.4846 15.7335 29.1319C15.8069 29.2295 15.9021 29.3597 15.9453 29.4208C16.0624 29.5865 16.9775 30.7526 17.1341 30.9356C17.2088 31.0231 17.3801 31.231 17.5146 31.3975C17.8574 31.8222 18.4659 32.5511 18.7816 32.9152C19.4405 33.6748 19.9968 34.3073 20.1862 34.5119C20.2993 34.6344 20.6499 35.0146 20.9652 35.3574C22.6852 37.2257 26.015 40.5377 28.1656 42.5188C28.509 42.835 28.9942 43.2818 29.2445 43.5118C29.4945 43.7418 29.6932 43.9357 29.6863 43.943C29.6562 43.9728 26.8383 44.6625 26.3408 44.7617C26.194 44.7908 25.8739 44.8615 25.6295 44.9183C25.3849 44.9752 25.0746 45.0349 24.9401 45.0509C24.8057 45.0672 24.4756 45.1272 24.2064 45.1843C23.9375 45.2414 23.5472 45.3108 23.3394 45.3383C23.1316 45.3657 22.7714 45.4164 22.539 45.4508C19.2479 45.9375 17.644 45.6269 18.1333 44.5971C18.351 44.139 19.4048 43.0161 19.9255 42.6874C20.0203 42.6277 20.1091 42.5495 20.1227 42.5138C20.1363 42.4783 20.1718 42.4489 20.2017 42.4489C20.2316 42.4489 20.3044 42.3966 20.3636 42.3326C20.4231 42.2686 20.5416 42.1704 20.6272 42.1144C21.2165 41.7299 21.443 41.231 21.0928 41.0886C20.8649 40.996 20.0971 41.3199 18.8707 42.0258C18.5404 42.216 17.1448 43.1378 16.7601 43.4198C15.742 44.1665 15.7375 44.1703 14.744 45.028C13.7398 45.8951 13.0856 46.8574 12.9157 47.718C12.8655 47.9717 12.9642 48.6817 13.0971 49.0245C13.513 50.097 14.9262 50.5209 17.7368 50.4163C18.53 50.387 20.5704 50.1234 21.4052 49.9428C21.6744 49.8846 21.9844 49.8257 22.0945 49.8115C22.2045 49.7976 22.5646 49.7248 22.8949 49.6498C24.5858 49.2662 25.0855 49.1493 25.4516 49.0517C25.6717 48.993 25.9617 48.9218 26.0964 48.8932C26.2308 48.8647 26.491 48.7964 26.6742 48.7412C26.8578 48.6862 27.1179 48.616 27.2524 48.5854C27.3868 48.5547 27.6203 48.4922 27.7708 48.4469C27.9215 48.4015 28.2318 48.3156 28.4601 48.2561C29.2376 48.0536 31.2131 47.4528 32.5161 47.0222C32.9731 46.8712 33.054 46.856 33.1164 46.9094C33.1559 46.9433 33.2485 47.022 33.3218 47.0841C33.3952 47.1463 33.6281 47.3442 33.8391 47.5243C34.3124 47.9277 35.4666 48.8775 35.9452 49.2574C36.141 49.4127 36.3291 49.5669 36.3632 49.5997C36.4206 49.6546 36.6842 49.8611 37.0545 50.1415C37.2188 50.2659 37.6228 50.5951 37.6572 50.6327C37.6793 50.657 38.3383 51.1775 38.6115 51.3864C38.6915 51.4477 38.8721 51.5878 39.013 51.6977C39.1539 51.8076 39.3641 51.9677 39.4801 52.0533C39.5962 52.139 39.8072 52.2991 39.9489 52.4092C40.0903 52.5192 40.3312 52.6992 40.4841 52.8094C40.6367 52.9193 40.9256 53.1296 41.126 53.2763C41.9389 53.8715 42.4623 54.2434 43.4038 54.8952C44.1201 55.3911 45.5827 56.3671 45.8831 56.5496C46.0421 56.6461 46.4124 56.8734 46.7059 57.0551C48.8554 58.384 51.8264 59.7902 52.4848 59.7902C52.5483 59.7902 52.6747 59.8225 52.7654 59.8617C53.7174 60.2734 55.2791 59.7179 55.6729 58.8282C55.9544 58.1914 55.6148 56.6219 54.9763 55.6107C54.9152 55.5139 54.8651 55.4213 54.8651 55.405C54.8651 55.389 54.7885 55.2535 54.6951 55.1041C54.6015 54.9547 54.5116 54.8023 54.4953 54.7658C54.466 54.7007 54.3323 54.5049 53.9777 54.0084C53.8809 53.8731 53.751 53.7144 53.6888 53.656C53.6264 53.5975 53.5757 53.5292 53.5757 53.5044C53.5757 53.4793 53.5287 53.4078 53.4714 53.3454C53.414 53.283 53.2587 53.0717 53.1267 52.8761C52.9946 52.6808 52.7663 52.3631 52.6195 52.1705C52.4728 51.9778 52.3234 51.7778 52.2871 51.7257C52.2511 51.6737 52.1137 51.4942 51.9822 51.3271C51.8504 51.1599 51.6249 50.8669 51.4809 50.6759C50.6005 49.5071 49.7478 49.5527 50.5402 50.7258C51.0772 51.5214 51.7957 53.109 51.869 53.6634C51.9405 54.2026 51.4176 54.4921 50.6794 54.3219C49.552 54.062 47.3536 53.1424 46.7501 52.6784C46.7259 52.6598 46.5957 52.5843 46.4612 52.5109C46.1747 52.3543 45.1302 51.7353 44.905 51.5886C44.8194 51.5328 44.6228 51.4096 44.4683 51.3146C43.4228 50.6722 40.24 48.4634 39.3953 47.7938C39.3118 47.7276 39.1981 47.6436 39.1426 47.607C39.0378 47.5377 38.2233 46.915 38.075 46.7907C38.0285 46.7517 37.8781 46.6343 37.7407 46.5297C37.6033 46.4252 37.2895 46.1797 37.0436 45.9844L36.5961 45.6291L36.8042 45.5464C36.9187 45.5007 37.0625 45.4428 37.1236 45.4172C37.2605 45.3604 37.861 45.143 38.1907 45.0309C38.3252 44.9853 38.7731 44.8159 39.1861 44.6545C39.5991 44.4931 39.9529 44.361 39.9721 44.361C39.9916 44.361 40.1589 44.2908 40.3443 44.2055C40.5294 44.1198 40.6932 44.0497 40.7082 44.0497C40.7581 44.0497 42.3553 43.4088 42.7262 43.24C42.8361 43.1898 43.0274 43.1138 43.1506 43.0711C43.2742 43.0284 43.4638 42.9484 43.5719 42.8931C43.6802 42.8379 43.8894 42.7475 44.0366 42.692C44.1842 42.6365 44.4747 42.5172 44.6825 42.4271C44.8904 42.3366 45.1705 42.2174 45.3052 42.1619C45.4397 42.1064 45.6598 42.0101 45.7942 41.9476C45.9287 41.8852 46.255 41.7419 46.5194 41.6291C46.7838 41.516 47.1338 41.3631 47.2976 41.2892C48.0697 40.9397 48.2917 40.8402 48.6844 40.6678C49.397 40.3552 50.4687 39.8712 50.7965 39.7141C51.7482 39.2579 52.4301 38.9364 52.4466 38.9364C52.5053 38.9364 55.8485 37.2385 55.9565 37.1537C55.9821 37.1337 56.1622 37.0358 56.3567 36.936C56.5512 36.8362 56.8046 36.7004 56.9199 36.6337C57.0351 36.5673 57.2753 36.4315 57.4535 36.332C57.6317 36.2322 57.9276 36.0636 58.1111 35.9574C58.2944 35.851 58.4846 35.7419 58.5334 35.7152C58.7727 35.5842 59.7553 34.9954 59.9119 34.8889C60.0096 34.8228 60.3697 34.5923 60.7123 34.3767C61.4174 33.933 62.1559 33.4339 62.6455 33.0697C62.8282 32.9336 63.0107 32.8024 63.0507 32.7778C63.0907 32.7535 63.1913 32.6786 63.274 32.6116C63.3567 32.5446 63.5445 32.3958 63.6913 32.2805C65.7669 30.6504 66.7292 29.3189 66.7356 28.0677C66.7372 27.7667 66.6118 27.3753 66.5139 27.3753C66.4934 27.3753 66.4637 27.3356 66.4483 27.2868C66.3464 26.9655 65.4974 26.5779 64.4916 26.3938C63.6059 26.2319 62.0809 26.2324 60.401 26.3954C60.1563 26.4192 59.8394 26.4498 59.6966 26.464C59.5539 26.4779 59.2836 26.5187 59.0964 26.5547C58.9091 26.5907 58.5457 26.6502 58.2888 26.6868C57.8291 26.7521 57.4772 26.814 56.6438 26.9765C56.4114 27.0216 56.0422 27.0923 55.8234 27.1334C55.6046 27.1744 55.2946 27.2435 55.1343 27.2868C54.9739 27.3302 54.7429 27.3791 54.6204 27.3956C54.4982 27.4119 54.188 27.4818 53.9313 27.5506C53.6744 27.6197 53.414 27.6877 53.3524 27.7019C53.1576 27.7467 53.0421 27.8924 53.0421 28.0925C53.0421 28.43 53.2566 28.5023 53.8932 28.3795C54.0732 28.3446 54.4403 28.2934 54.7095 28.2653C55.3205 28.2018 56.2366 28.0989 56.7326 28.038C57.3454 27.9628 59.2204 28.0098 59.9786 28.1191C61.3179 28.3123 61.5882 28.3929 61.8197 28.6679L61.9377 28.8085L61.7971 29.059C61.6402 29.3384 61.2971 29.7834 61.1047 29.9565C61.0357 30.019 60.839 30.1964 60.6677 30.3511C60.31 30.6742 59.8572 31.0218 59.2548 31.4361C58.8045 31.7456 57.5805 32.5334 57.5498 32.5334C57.5396 32.5334 57.4465 32.5879 57.343 32.6543C57.081 32.8232 56.5005 33.1559 56.4685 33.1559C56.4538 33.1559 56.3676 33.2063 56.2769 33.2682C56.186 33.3298 55.9963 33.4427 55.8551 33.5187C55.7143 33.5947 55.4787 33.722 55.332 33.8012C55.0276 33.9658 54.6562 34.1646 54.1037 34.4589C53.3524 34.8588 50.9622 36.038 50.2184 36.3755C49.8028 36.5641 49.3225 36.7874 49.1513 36.8714C48.9802 36.9555 48.8204 37.0243 48.7962 37.0243C48.7721 37.0243 48.6521 37.0737 48.5294 37.134C48.3261 37.2343 47.482 37.6115 46.6392 37.9794C46.0261 38.2467 45.0635 38.6752 44.7807 38.8065C44.6268 38.878 44.4835 38.9364 44.4624 38.9364C44.4414 38.9364 44.2871 38.9985 44.1199 39.0746C43.9526 39.1506 43.6954 39.2587 43.5487 39.315C43.4019 39.3713 43.0119 39.5289 42.6816 39.6653C42.3516 39.8013 42.0669 39.9134 42.0493 39.9136C42.0317 39.9142 41.9074 39.9649 41.7729 40.0262C41.6387 40.0878 41.373 40.1954 41.1825 40.2653C40.9923 40.3352 40.6164 40.4766 40.3472 40.5793C39.359 40.9565 38.2204 41.3727 37.7239 41.5378C37.5526 41.5947 37.3218 41.6806 37.2108 41.7283C37.0998 41.7761 36.9398 41.83 36.8549 41.8479C36.7704 41.866 36.5511 41.9367 36.3678 42.0055C36.1842 42.0744 35.764 42.2128 35.434 42.3137C35.1037 42.4143 34.6136 42.5647 34.3444 42.648C33.4267 42.9321 33.3432 42.9502 33.2615 42.883C33.2213 42.8499 33.0284 42.6829 32.8328 42.5119C32.637 42.3412 32.3673 42.112 32.2333 42.0029C32.0991 41.8935 31.9492 41.7625 31.8999 41.7113C31.8505 41.6603 31.64 41.477 31.4322 41.3044C31.2241 41.1315 30.9613 40.9032 30.8476 40.797C30.734 40.6908 30.555 40.5337 30.4499 40.448C30.345 40.3624 30.1977 40.2308 30.123 40.1553C30.0481 40.0798 29.8234 39.875 29.6236 39.6999C27.8372 38.1371 22.3941 32.658 21.2454 31.2662C21.2048 31.2171 21.0626 31.057 20.9289 30.9103C20.5754 30.5221 19.7375 29.5518 19.5822 29.3512C19.5088 29.2565 19.3938 29.1217 19.3266 29.0518C19.2594 28.9819 19.2041 28.9166 19.2041 28.9064C19.2041 28.8963 19.0481 28.6927 18.8571 28.454C18.2248 27.6635 17.6931 26.9173 17.0994 25.9867C16.5141 25.0692 15.9816 23.8057 16.0117 23.4052C16.0491 22.9058 17.0199 22.853 18.1815 23.2871C18.3651 23.3556 18.5652 23.425 18.6263 23.441C18.928 23.5205 20.5896 24.3243 21.3107 24.74C21.5767 24.8934 21.8029 25.0188 21.8131 25.0188C21.8235 25.0188 21.9414 25.089 22.0753 25.1743C22.209 25.26 22.3256 25.3301 22.3341 25.3301C22.3605 25.3301 23.2748 25.8899 23.4883 26.0369C23.5987 26.1126 23.699 26.1748 23.7113 26.1748C23.7233 26.1748 23.8572 26.2599 24.0085 26.3639C24.5138 26.7108 24.6501 26.7369 24.7547 26.5072C24.8718 26.2503 24.5704 25.8144 24.021 25.4467C23.9434 25.3947 23.6433 25.1605 23.3541 24.9262C22.8933 24.553 22.483 24.2491 21.7386 23.7291C21.0415 23.2422 17.9532 21.5505 17.7616 21.5505C17.7333 21.5505 17.6883 21.5284 17.6613 21.5017C17.6138 21.4539 17.1315 21.237 16.2695 20.8755C14.9619 20.3268 13.8748 20.1243 13.0832 20.2817ZM14.8021 21.0508C16.0571 21.3814 18.0316 22.2218 19.2306 22.9354C19.679 23.2025 19.6734 23.2188 19.2028 23.0155C16.4202 21.8144 15.2023 21.9387 15.2023 23.4239C15.2023 25.0081 16.5467 27.3078 19.6934 31.1077C21.3377 33.0934 23.9997 35.8632 26.3893 38.0752C27.9298 39.5012 29.2274 40.6913 29.6308 41.0483C29.824 41.2196 30.0945 41.4597 30.2314 41.5819C30.3685 41.7043 30.6782 41.9743 30.9199 42.1821C31.1614 42.39 31.4805 42.668 31.6291 42.7995C31.7774 42.9313 32.0087 43.1204 32.1429 43.22C32.2771 43.3197 32.5441 43.527 32.7365 43.681C32.9286 43.8349 33.1057 43.9608 33.13 43.9608C33.3696 43.9608 34.9199 43.4942 37.1681 42.7459C40.3744 41.6782 43.125 40.655 46.0832 39.4291C55.0929 35.696 61.6295 31.7856 62.6257 29.5329C63.1465 28.3553 62.5585 27.6008 60.99 27.4343C60.5722 27.39 60.6958 27.3463 61.3459 27.3081C64.4369 27.1264 66.0998 27.5423 65.8213 28.4276C65.284 30.1361 61.4276 33.0857 55.9322 35.9916C55.651 36.1404 55.2308 36.3629 54.9985 36.4865C54.2515 36.8832 51.5862 38.2 50.4409 38.7384C47.4486 40.1444 43.526 41.7734 40.1695 43.0041C39.656 43.1922 39.1357 43.3846 39.0133 43.4313C38.6203 43.5809 37.2122 44.0779 36.4566 44.3333C35.5114 44.6529 34.6718 44.9957 34.6152 45.0856C34.5493 45.1897 34.5664 45.2065 35.5599 46.0204C35.6741 46.1141 35.9076 46.2974 36.0786 46.4284C36.2499 46.5591 36.59 46.82 36.8347 47.0084C38.4399 48.2444 40.2424 49.5469 41.8591 50.6391C43.5879 51.8068 44.4416 52.3415 46.0389 53.2568C46.4164 53.4732 48.0953 54.3109 48.3066 54.3883C48.4288 54.4331 48.5496 54.4854 48.575 54.5041C48.663 54.57 49.7088 54.9384 50.0957 55.0401C51.2824 55.3517 52.3551 55.0224 52.6731 54.249C52.7686 54.0164 52.8049 54.0105 52.9847 54.1989C53.3759 54.6081 54.2739 56.2673 54.4468 56.9001C54.8387 58.3344 54.0725 58.9987 52.4861 58.5998C51.8957 58.4515 51.3669 58.2877 51.1879 58.1978C51.0951 58.1511 50.9387 58.0881 50.8411 58.0582C50.7432 58.0284 50.5631 57.9571 50.4409 57.9C50.3185 57.8429 50.0984 57.7426 49.9516 57.6767C48.6217 57.0802 46.2368 55.6339 44.1988 54.1877C44.0783 54.102 43.7826 53.8931 43.542 53.7235C43.3011 53.5538 43.034 53.3622 42.9484 53.2979C42.8628 53.2334 42.6829 53.1008 42.5482 53.0029C41.7382 52.4138 40.4419 51.4253 39.0405 50.328C38.7809 50.1247 38.4589 49.8747 38.3249 49.772C37.2212 48.9279 34.9172 47.0446 34.2073 46.4065C32.9769 45.3004 33.309 45.3644 31.5656 45.8959C31.1376 46.0266 30.4272 46.2357 29.987 46.3609C29.5468 46.486 29.0465 46.6295 28.8753 46.6799C28.7042 46.7304 28.414 46.8104 28.2307 46.8582C26.7076 47.2541 26.1105 47.4059 25.785 47.48C25.5772 47.5275 25.2971 47.5948 25.1626 47.6295C25.0279 47.6641 24.7179 47.7338 24.4732 47.7845C24.2289 47.8349 23.8586 47.9146 23.6507 47.9613C23.4429 48.0078 23.0827 48.0785 22.8504 48.1182C22.618 48.158 22.348 48.2076 22.2501 48.2289C22.1522 48.25 21.812 48.309 21.4943 48.3599C21.1763 48.4109 20.806 48.472 20.6715 48.496C20.537 48.5197 20.3271 48.5504 20.2046 48.5637C20.0824 48.5774 19.8666 48.6086 19.7249 48.6334C19.5833 48.6582 19.3533 48.6881 19.2135 48.6995C19.074 48.711 18.8296 48.738 18.6706 48.7596C18.5116 48.7812 18.3515 48.7988 18.3149 48.7991C18.2781 48.7993 17.788 48.8236 17.2256 48.8527C16.1988 48.9063 15.9459 48.9007 15.2469 48.8097C13.6525 48.6019 13.6974 47.4832 15.3643 45.8713C16.4866 44.786 17.7576 43.7984 17.4332 44.2642C16.9426 44.9677 17.2934 46.0084 18.1573 46.4116C18.729 46.6783 20.1667 46.7997 21.2899 46.6757C21.5556 46.6463 21.8606 46.6162 21.9673 46.6087C22.074 46.6012 22.3213 46.5719 22.5169 46.5433C23.476 46.4038 23.8319 46.3486 24.1176 46.2947C24.2889 46.2622 24.609 46.2024 24.8291 46.1613C26.1217 45.9204 28.3153 45.409 29.698 45.0261C29.9792 44.9482 30.2855 44.8663 30.3786 44.8442C30.921 44.7153 31.6099 44.3957 31.6099 44.2727C31.6099 44.1916 31.0048 43.5889 30.2751 42.9433C30.0433 42.7381 29.8336 42.5466 29.809 42.5175C29.7847 42.4884 29.6546 42.3681 29.5201 42.2499C28.3673 41.2374 25.6895 38.5898 23.4698 36.2677C16.4199 28.8918 12.3354 22.9835 13.0507 21.1957C13.0917 21.0932 13.1675 20.9911 13.219 20.9689C13.3804 20.8993 14.4334 20.9537 14.8021 21.0508ZM30.0766 23.8737C31.5106 25.3899 32.3955 28.0909 31.5872 28.4844C31.1 28.7213 30.424 28.5887 29.3646 28.0479C28.9486 27.8358 28.5186 27.6248 28.4084 27.5794C28.2985 27.5338 28.1256 27.4604 28.0247 27.4162C27.9236 27.3716 27.7134 27.2932 27.5579 27.2414C27.4021 27.1897 27.1545 27.1 27.0077 27.0421C26.8607 26.9842 26.5537 26.9066 26.325 26.8698C25.8021 26.7857 25.8144 26.8215 26.1676 26.4122C27.1318 25.2949 28.2184 24.3305 29.408 23.5362C29.6396 23.3818 29.5855 23.3546 30.0766 23.8737ZM54.1909 39.4441C54.0522 39.5276 53.9273 39.5844 53.9129 39.57C53.8985 39.5556 53.8868 39.5684 53.8868 39.5986C53.8868 39.6284 53.8686 39.6418 53.8465 39.6282C53.6984 39.5364 53.4564 39.9094 53.4452 40.2466C53.43 40.7001 52.4565 43.1031 51.9045 44.0497C51.3109 45.068 50.8339 45.7416 50.0479 46.6714C48.881 48.0518 46.9572 49.5442 45.2102 50.4241C44.9731 50.5436 44.8941 50.8085 45.0958 50.8085C45.1177 50.8085 45.2172 50.8784 45.3172 50.964C45.4173 51.0497 45.5162 51.1196 45.5373 51.1196C45.5584 51.1196 45.6299 51.17 45.6961 51.2314C45.7622 51.2927 45.8556 51.3554 45.9034 51.3706C45.9511 51.3858 46.0197 51.4277 46.0557 51.4635C46.1552 51.5633 46.3745 51.5062 46.684 51.3007C46.8339 51.2012 46.9713 51.1196 46.9895 51.1196C47.0076 51.1196 47.0626 51.0822 47.1116 51.0366C47.1607 50.9907 47.3347 50.8691 47.498 50.7658C47.6615 50.6626 47.7952 50.5599 47.7952 50.5377C47.7952 50.5153 47.8216 50.4972 47.8539 50.4972C47.8861 50.4972 47.9945 50.427 48.0942 50.3416C48.1943 50.256 48.297 50.1858 48.3221 50.1858C48.3474 50.1858 48.3944 50.1509 48.4264 50.1082C48.4581 50.0652 48.6588 49.8846 48.8722 49.7067C49.4783 49.2011 49.9884 48.7019 50.5482 48.0678C51.1778 47.3539 51.2554 47.2615 51.3451 47.1191C51.384 47.0572 51.4715 46.9478 51.5398 46.876C51.6078 46.804 51.6636 46.7277 51.6636 46.7064C51.6636 46.6607 51.8925 46.3467 51.9416 46.3248C51.9597 46.3168 51.975 46.2907 51.975 46.2672C51.975 46.2435 52.0521 46.1101 52.1462 45.9708C52.3453 45.6765 52.6419 45.1819 52.6419 45.1443C52.6419 45.1302 52.7118 45.009 52.7975 44.8754C52.8831 44.7415 52.953 44.6094 52.953 44.5819C52.953 44.5542 53.0232 44.4122 53.1088 44.266C53.1942 44.1201 53.2643 43.9723 53.2643 43.9376C53.2643 43.9032 53.3342 43.7477 53.4199 43.5919C53.5055 43.4361 53.5757 43.2789 53.5757 43.2424C53.5757 43.2061 53.6328 43.0577 53.7027 42.9126C53.7726 42.7677 53.8555 42.569 53.8873 42.4713C53.9188 42.3734 53.9991 42.1435 54.0655 41.9599C54.1319 41.7766 54.2005 41.5563 54.2179 41.4709C54.2352 41.3852 54.3107 41.1155 54.3854 40.8711C54.4604 40.627 54.5364 40.317 54.5548 40.182C54.5732 40.047 54.6119 39.8197 54.6407 39.6767C54.7287 39.2411 54.6204 39.185 54.1909 39.4441ZM22.0679 39.7098C22.0025 39.8803 22.189 40.6673 22.5436 41.7153C22.618 41.9354 22.7044 42.2056 22.7356 42.3155C22.7669 42.4257 22.8429 42.6258 22.9043 42.7603C22.9656 42.8947 23.031 43.0548 23.0491 43.1159C23.0825 43.2274 23.3306 43.7773 23.4605 44.0275C23.8233 44.727 23.7852 44.6945 24.1467 44.6107C24.6832 44.4861 24.7963 44.3893 24.656 44.174C24.4863 43.9144 24.0562 43.0746 23.6699 42.2488C23.5654 42.0255 23.206 41.0712 23.206 41.0168C23.206 40.6729 22.7356 39.9216 22.5166 39.9158C22.4921 39.915 22.4155 39.8544 22.3461 39.781C22.2106 39.6375 22.106 39.6106 22.0679 39.7098ZM46.6952 42.7597C46.4978 42.8545 46.4524 42.8998 46.3988 43.0572C46.335 43.2437 46.0744 43.657 45.8196 43.9758C45.0883 44.8893 44.5401 45.4589 43.8846 45.985C43.7026 46.1312 43.5052 46.2952 43.446 46.3497C43.2717 46.5095 42.2449 47.1794 41.8591 47.3845C41.6635 47.4886 41.4835 47.5886 41.4589 47.6068C41.4344 47.6249 41.3386 47.6644 41.2458 47.6943C41.0659 47.7522 41.075 47.8375 41.2676 47.8986C41.3573 47.9272 41.4667 48.0056 41.6211 48.1516C41.6665 48.1945 41.7185 48.2297 41.7369 48.2297C41.7551 48.23 41.8439 48.3002 41.9341 48.3855C42.1398 48.5806 42.0773 48.595 42.6312 48.2228C44.5417 46.9385 45.8492 45.505 46.7053 43.7567C47.1591 42.8296 47.1562 42.5386 46.6952 42.7597ZM29.7378 49.494C29.7269 49.5047 29.6594 49.5242 29.5876 49.5373C29.4694 49.5586 29.006 49.728 28.5762 49.907C28.2643 50.037 28.3371 50.1944 28.8731 50.5495C28.9796 50.6199 29.0911 50.7071 29.121 50.7431C29.1509 50.7789 29.1978 50.8085 29.2253 50.8088C29.253 50.809 29.3635 50.8792 29.4707 50.9646C29.5783 51.05 29.6823 51.1196 29.7023 51.1196C29.7221 51.1196 29.8528 51.1996 29.9923 51.2975C30.1321 51.3954 30.2716 51.4755 30.3023 51.4755C30.3333 51.4755 30.3877 51.5046 30.4234 51.5403C30.4896 51.6065 32.1154 52.4092 32.1835 52.4092C32.2187 52.4092 32.471 52.5117 32.7949 52.6574C32.872 52.692 32.9622 52.7203 32.995 52.7203C33.0281 52.7203 33.2551 52.7924 33.4998 52.8799C33.7442 52.9676 34.0344 53.0567 34.1443 53.0776C34.2545 53.0986 34.5846 53.1741 34.878 53.2456C36.5036 53.6421 39.9249 53.7683 39.9249 53.4318C39.9249 53.3718 39.6573 53.0762 39.6029 53.0762C39.5775 53.0762 39.4681 52.9943 39.3595 52.8943C39.251 52.7942 39.1528 52.7217 39.1413 52.7331C39.1301 52.7446 39.0501 52.6912 38.9636 52.6149C38.8772 52.5384 38.7988 52.4802 38.7889 52.4855C38.7793 52.4909 38.7067 52.4365 38.628 52.3644C38.5493 52.2927 38.4757 52.2428 38.4647 52.2537C38.4538 52.2646 38.3796 52.2166 38.2999 52.1465C38.1593 52.0232 38.1363 52.0187 37.5171 51.9896C36.8912 51.9605 35.998 51.8559 35.8241 51.7916C35.7267 51.7556 36.1442 51.3672 36.6234 51.0481C36.8779 50.8784 36.9046 50.8296 36.7656 50.7856C36.7154 50.7696 36.6164 50.7031 36.5457 50.638C36.3432 50.4513 36.2856 50.4083 36.2392 50.4083C36.2154 50.4083 36.1832 50.3683 36.1677 50.3192C36.1519 50.2704 36.1207 50.228 36.0978 50.2248C36.0751 50.2218 36.0314 50.2154 36.0009 50.2106C35.8838 50.1928 35.0173 50.7039 34.4914 51.1014L34.1321 51.373L33.8482 51.3135C33.6921 51.2807 33.4099 51.1938 33.2207 51.1204C33.0318 51.0468 32.86 50.9867 32.839 50.9865C32.7955 50.9862 31.9994 50.6436 31.5656 50.4385C31.215 50.2728 30.0545 49.6125 29.9726 49.5322C29.916 49.4764 29.7778 49.454 29.7378 49.494Z" fill="#7D244C"/>
<path fill-rule="evenodd" clip-rule="evenodd" d="M38.9911 20.887C38.9911 20.9025 38.8463 21.0116 38.6691 21.1292C38.2727 21.3928 37.6092 22.0315 37.2378 22.5067C35.5298 24.6925 35.4226 26.5184 36.8582 28.9763C37.5852 30.2211 37.4758 30.9932 36.514 31.4089C36.1755 31.5554 34.9335 31.4788 34.1399 31.2624C33.9101 31.2 33.6519 31.1325 33.5665 31.1128C33.4809 31.093 33.1506 31.0068 32.8329 30.9209C32.0512 30.7102 30.551 30.4559 29.8982 30.4236C29.6047 30.4092 29.2429 30.3852 29.0943 30.3705C27.8938 30.2526 24.7814 30.9055 23.4995 31.5439L23.2818 31.6525L24.0541 32.3931C24.4789 32.8005 24.8929 33.2049 24.9738 33.2916L25.121 33.4496L25.4641 33.2836C26.6999 32.6868 29.0364 32.3699 30.8541 32.5523C31.2575 32.5929 31.8177 32.6441 32.0992 32.6663C32.3804 32.6884 32.9305 32.7658 33.3219 32.8381C35.3807 33.2191 36.0199 33.2567 36.8982 33.0488C38.3709 32.7004 39.2201 31.832 39.0408 30.8577C38.9509 30.3703 38.5341 29.527 38.1881 29.1321C38.0734 29.0011 37.869 28.7068 37.555 28.2205C37.4683 28.086 37.3677 27.8958 37.3317 27.7982C37.2957 27.7003 37.2242 27.5156 37.1732 27.3878C36.1963 24.9435 37.8106 22.1188 40.6364 21.328C41.3221 21.1359 41.3152 21.1399 41.0366 21.1028C40.9019 21.0849 40.582 21.038 40.3251 20.9985C39.7611 20.9123 38.9911 20.8478 38.9911 20.887ZM13.2126 20.9742C13.1577 20.9961 13.1126 21.0263 13.1126 21.0407C13.1126 21.0551 13.1337 21.054 13.1593 21.038C13.1849 21.0222 13.3001 20.9934 13.4149 20.974C13.5995 20.9427 13.6056 20.9385 13.4682 20.9363C13.3828 20.935 13.2676 20.9521 13.2126 20.9742ZM14.2384 20.9913C15.2677 21.1503 16.5262 21.61 18.1549 22.4213C18.4919 22.5891 18.7469 22.7334 18.7216 22.7417C18.6962 22.7502 18.6359 22.7358 18.5871 22.7097C18.5385 22.6838 18.4724 22.6633 18.4401 22.6643C18.4081 22.6654 18.4916 22.7129 18.6263 22.77C18.7608 22.8271 19.0396 22.9461 19.2458 23.0344C19.9899 23.3524 19.2578 22.9178 18.03 22.3124C16.3789 21.4982 14.9678 21.002 14.1576 20.9505L13.8463 20.9307L14.2384 20.9913ZM12.9824 21.9992C12.984 22.0582 13.0035 22.1465 13.0256 22.1956C13.0539 22.2575 13.0579 22.2305 13.039 22.1065C13.0075 21.9 12.9779 21.8437 12.9824 21.9992ZM41.5256 22.0843C41.4376 22.1126 41.4331 22.1198 41.5035 22.1198C41.5523 22.1198 41.6425 22.1038 41.7036 22.0843C41.7916 22.0561 41.7962 22.0489 41.7257 22.0489C41.6769 22.0489 41.5867 22.0649 41.5256 22.0843ZM44.3715 22.0843C44.4305 22.1225 44.4302 22.1276 44.3702 22.1281C44.2762 22.1292 43.6906 22.4136 43.4668 22.5675C43.3652 22.6371 43.132 22.7801 42.9484 22.8852C41.9602 23.4519 40.8787 24.8891 40.4636 26.1878C40.161 27.1344 40.1506 28.7439 40.439 29.9992C40.7138 31.1952 40.6895 32.2973 40.3659 33.3234C40.2947 33.5499 40.2363 33.767 40.2363 33.8057C40.2363 33.9802 39.5565 35.4644 39.434 35.5572C39.4177 35.5695 39.3788 35.6295 39.347 35.6906C38.6702 36.996 36.9769 38.5084 34.6558 39.8805C34.3853 40.0406 33.1749 40.6539 32.911 40.7649L32.767 40.8255L33.3112 41.3513L33.8555 41.8774L34.0459 41.8526C34.1508 41.839 34.3888 41.7576 34.5747 41.6717C34.7607 41.5858 34.9317 41.5154 34.9546 41.5154C34.9776 41.5154 35.1699 41.438 35.3818 41.3436C35.8697 41.1259 36.3827 40.9127 36.6122 40.8324C36.7101 40.7983 36.9001 40.7209 37.0348 40.6606C37.3549 40.5173 37.7042 40.373 38.039 40.2463C38.1878 40.19 38.44 40.0822 38.5992 40.007C38.7582 39.9317 38.9116 39.8704 38.9397 39.8704C38.9679 39.8704 39.116 39.8114 39.2689 39.7397C39.4217 39.6679 39.6269 39.5804 39.7248 39.5449C39.8227 39.5097 40.0327 39.4259 40.1917 39.3587C40.3507 39.2914 40.6407 39.1711 40.8365 39.0914C41.0321 39.0116 41.3621 38.8739 41.5702 38.7856C41.778 38.697 41.9635 38.6247 41.9824 38.625C42.0013 38.625 42.1884 38.5452 42.398 38.4473C42.6077 38.3497 42.7982 38.2696 42.8212 38.2696C42.8441 38.2696 43.0173 38.2024 43.2059 38.1202C44.0087 37.7705 44.2232 37.6811 44.352 37.6432C44.427 37.6211 44.6124 37.5429 44.7639 37.4693C44.9157 37.3959 45.0585 37.3359 45.0817 37.3359C45.1046 37.3359 45.3053 37.2558 45.5275 37.1579C45.7497 37.06 45.9485 36.98 45.9688 36.98C45.989 36.98 46.1155 36.9298 46.2497 36.8685L46.4933 36.7569L46.4138 36.4232C46.2385 35.6871 45.6948 34.792 44.9016 33.9343C44.0279 32.9891 43.4241 31.9715 43.0141 30.7521L42.7982 30.1102L42.7966 29.4432C42.7934 28.1156 43.2995 27.2051 44.6159 26.171C45.3197 25.618 46.4082 25.1121 47.1744 24.9819C47.9075 24.8573 48.2877 24.7952 48.5067 24.764L48.7511 24.729L48.2621 24.3374C47.7514 23.9287 46.8361 23.3009 46.3327 23.0144C45.6678 22.6358 44.0039 21.8469 44.3715 22.0843ZM16.0694 22.1953C16.094 22.2036 16.3341 22.2188 16.603 22.2289C16.8722 22.2391 17.0323 22.2332 16.9589 22.2156C16.829 22.1846 15.9808 22.1654 16.0694 22.1953ZM15.7138 22.2876C15.2189 22.5451 15.0023 23.3513 15.2253 24.1074C15.2613 24.2299 15.2792 24.2699 15.265 24.1965C15.0695 23.1838 15.2861 22.4674 15.8472 22.2714C15.9205 22.2457 15.9507 22.2233 15.9139 22.2215C15.8771 22.2199 15.7872 22.2495 15.7138 22.2876ZM17.5346 22.3927C17.7777 22.4661 17.9847 22.5181 17.9946 22.5085C18.0167 22.4864 17.449 22.3159 17.2446 22.2834C17.1608 22.27 17.2913 22.3194 17.5346 22.3927ZM18.9374 22.818C18.9988 22.853 19.0286 22.8815 19.0041 22.8815C18.9798 22.8815 18.9097 22.853 18.8486 22.818C18.7875 22.7831 18.7573 22.7545 18.7819 22.7545C18.8064 22.7545 18.8763 22.7831 18.9374 22.818ZM38.8876 23.3244C38.7001 23.517 38.5464 23.6904 38.5464 23.7096C38.5464 23.7288 38.552 23.736 38.559 23.7259C38.5656 23.7158 38.7292 23.5423 38.9223 23.3404C39.1155 23.1387 39.2633 22.9735 39.251 22.9735C39.239 22.9735 39.0755 23.1315 38.8876 23.3244ZM13.2935 23.0402C13.2935 23.0648 13.3223 23.135 13.3572 23.196C13.3922 23.2571 13.4207 23.287 13.4207 23.2627C13.4207 23.2382 13.3922 23.1683 13.3572 23.1069C13.3223 23.0458 13.2935 23.016 13.2935 23.0402ZM13.4269 23.3516C13.4269 23.3761 13.4557 23.446 13.4906 23.5071C13.5256 23.5685 13.5541 23.5984 13.5541 23.5738C13.5541 23.5495 13.5256 23.4794 13.4906 23.4183C13.4557 23.3572 13.4269 23.327 13.4269 23.3516ZM29.3091 23.6021L29.0314 23.7854L29.2203 23.9054C29.5991 24.1469 30.5926 25.305 30.8431 25.7972C31.0315 26.1678 31.1505 26.9295 31.0515 27.1325C30.9034 27.4356 30.8162 27.418 29.6314 26.8425C28.5584 26.3215 27.6251 25.9093 27.5139 25.9072C27.48 25.9064 27.3223 25.8474 27.1636 25.7756L26.8744 25.6457L26.6714 25.8549C26.3461 26.1892 25.8651 26.759 25.8881 26.782C25.8995 26.7937 26.0962 26.8332 26.3251 26.87C26.5537 26.9068 26.8608 26.9845 27.0078 27.0423C27.1545 27.1002 27.4021 27.1899 27.5579 27.2416C27.7134 27.2934 27.9237 27.3718 28.0248 27.4164C28.1256 27.4607 28.2985 27.534 28.4084 27.5797C28.5186 27.625 28.9487 27.836 29.3646 28.0481C30.424 28.5889 31.1001 28.7215 31.5872 28.4846C32.3956 28.0911 31.5106 25.3901 30.0767 23.874C29.5748 23.3433 29.6573 23.3727 29.3091 23.6021ZM15.3379 24.5119C15.3301 24.6954 15.801 25.7087 16.2452 26.4642C16.5334 26.9543 17.2809 28.0871 17.3161 28.0871C17.3284 28.0871 17.1787 27.8486 16.9834 27.557C16.2738 26.4978 15.7773 25.5974 15.4857 24.8411C15.4054 24.6332 15.3389 24.4852 15.3379 24.5119ZM14.113 24.7077C14.1509 24.781 14.192 24.8411 14.2043 24.8411C14.2166 24.8411 14.1955 24.781 14.1576 24.7077C14.1195 24.6343 14.0786 24.5743 14.0664 24.5743C14.0541 24.5743 14.0752 24.6343 14.113 24.7077ZM14.2825 24.9969C14.3201 25.0702 14.3841 25.1703 14.4247 25.2191C14.4655 25.2679 14.4537 25.2279 14.3988 25.1303C14.2777 24.9144 14.1869 24.8104 14.2825 24.9969ZM27.4064 25.1191L27.1857 25.3525L27.4192 25.1319C27.6361 24.9267 27.6729 24.8856 27.6398 24.8856C27.6329 24.8856 27.5277 24.9907 27.4064 25.1191ZM14.6632 25.6193C14.6872 25.6681 14.7395 25.7482 14.7792 25.7972L14.8515 25.8861L14.808 25.7972C14.784 25.7482 14.7317 25.6681 14.692 25.6193L14.6194 25.5305L14.6632 25.6193ZM14.9758 26.1083C15.0012 26.1574 15.0639 26.2473 15.1151 26.3084C15.1789 26.3844 15.1938 26.3914 15.1623 26.3308C15.1367 26.2817 15.074 26.1918 15.0228 26.1307C14.9593 26.0547 14.9444 26.0478 14.9758 26.1083ZM15.8659 27.3756C15.9414 27.4858 16.0545 27.6357 16.1174 27.7091C16.2057 27.8115 16.2004 27.796 16.0953 27.6424C16.0198 27.5324 15.9067 27.3822 15.8437 27.3089C15.7554 27.2064 15.7607 27.2219 15.8659 27.3756ZM61.7128 27.2867L61.4236 27.3158L61.6682 27.3203C61.8027 27.3227 62.0028 27.3086 62.113 27.2891C62.3691 27.2435 62.1546 27.2422 61.7128 27.2867ZM62.6946 27.2603C62.7047 27.2705 63.0633 27.3017 63.4912 27.3297C63.9194 27.358 64.3393 27.3892 64.425 27.3993L64.5808 27.4177L64.425 27.3761C64.1915 27.3137 62.6433 27.2102 62.6946 27.2603ZM60.7345 27.3756C60.7345 27.4001 60.7996 27.4207 60.8791 27.4212C61.0423 27.4223 61.7128 27.5647 61.9078 27.64C61.9785 27.6672 62.0455 27.6802 62.0567 27.669C62.0852 27.6405 61.5066 27.4655 61.2793 27.434C61.1752 27.4199 61.0901 27.3908 61.0901 27.3697C61.0901 27.3484 61.0101 27.3313 60.9124 27.3313C60.8145 27.3313 60.7345 27.3513 60.7345 27.3756ZM65.1402 27.5677C65.2109 27.6218 65.4921 27.7688 65.4921 27.7515C65.4921 27.7216 65.2123 27.5538 65.1624 27.5538C65.14 27.5535 65.1301 27.5599 65.1402 27.5677ZM62.2741 27.8094C62.8357 28.1831 62.9611 28.7517 62.645 29.4923C62.5937 29.6121 62.5735 29.6889 62.5996 29.663C62.7882 29.4768 62.9221 28.6119 62.8056 28.3328C62.7031 28.0879 62.2797 27.6861 62.125 27.6872C62.106 27.6872 62.1733 27.7421 62.2741 27.8094ZM16.7188 28.5206C17.5861 29.6596 20.1238 32.6881 20.7329 33.3111L20.9941 33.5784L20.7014 33.2449C20.2575 32.7391 19.3461 31.6864 19.2002 31.5108C19.129 31.4254 18.7541 30.9751 18.3673 30.5103C17.9802 30.0459 17.5952 29.5731 17.5114 29.4603C17.2267 29.0764 16.2615 27.8649 16.2404 27.8649C16.229 27.8649 16.4443 28.1599 16.7188 28.5206ZM25.7072 28.1178C25.7501 28.129 25.82 28.129 25.863 28.1178C25.9057 28.1066 25.8707 28.0975 25.7851 28.0975C25.6994 28.0975 25.6645 28.1066 25.7072 28.1178ZM17.5386 28.4206C17.8316 28.8402 18.7322 30.0077 19.1855 30.5549C19.388 30.7995 19.6769 31.1496 19.8274 31.3331C21.7294 33.6515 25.2392 37.1534 29.498 40.9818C29.7474 41.2062 30.4787 41.8486 30.9149 42.2269C31.0136 42.3126 31.1366 42.4225 31.1881 42.4716C31.4989 42.7661 32.3214 43.4168 32.3214 43.368C32.3214 43.3565 32.2264 43.2781 32.1101 43.1938C31.9941 43.1095 31.7774 42.9326 31.6291 42.8005C31.4805 42.6685 31.1614 42.3902 30.92 42.1824C30.6783 41.9745 30.3685 41.7046 30.2314 41.5821C30.0945 41.4599 29.824 41.2198 29.6308 41.0485C29.2275 40.6916 27.9298 39.5014 26.3894 38.0754C23.09 35.0215 20.0302 31.6992 17.9473 28.9096C17.3727 28.1399 17.1915 27.9233 17.5386 28.4206ZM24.9514 28.1623C24.994 28.1733 25.0642 28.1733 25.1069 28.1623C25.1499 28.1511 25.1146 28.1418 25.0293 28.1418C24.9436 28.1418 24.9087 28.1511 24.9514 28.1623ZM26.5967 28.1623C26.6393 28.1733 26.7095 28.1733 26.7522 28.1623C26.7949 28.1511 26.7599 28.1418 26.6743 28.1418C26.5886 28.1418 26.5537 28.1511 26.5967 28.1623ZM51.6588 28.789C51.0666 29.4072 50.8771 29.6782 50.1598 30.9329C49.3847 32.2882 48.9963 33.6795 48.996 35.1015C48.9957 35.7882 48.9696 35.764 49.4656 35.5351C49.651 35.4494 49.8263 35.3779 49.8551 35.3763C49.8836 35.3747 50.0474 35.3043 50.2184 35.22C50.4783 35.0922 50.518 35.0532 50.2963 35.1437C50.2179 35.176 50.2235 34.3793 50.3043 33.997C50.5821 32.6873 51.2579 31.4606 52.2821 30.4074C52.48 30.2038 52.642 30.0184 52.642 29.9954C52.642 29.9482 52.1113 28.8789 51.9843 28.6698L51.9021 28.535L51.6588 28.789ZM65.6773 28.6892C65.6028 28.8528 65.617 28.8877 65.6976 28.7391C65.7352 28.6695 65.7576 28.6044 65.7474 28.5943C65.7373 28.5841 65.7058 28.6268 65.6773 28.6892ZM65.0461 29.6451C64.9428 29.7684 64.866 29.8759 64.8753 29.8837C64.8844 29.8917 64.978 29.7908 65.0831 29.6596C65.3248 29.3575 65.2963 29.3463 65.0461 29.6451ZM62.3651 29.9954C61.6488 31.0778 58.4988 33.4322 56.206 34.5989C56.1244 34.6405 56.0667 34.684 56.0785 34.6955C56.0899 34.7069 56.198 34.6584 56.3183 34.5874C56.4386 34.5165 56.6262 34.4076 56.735 34.346C57.5498 33.8831 58.7754 33.1049 59.7279 32.4456C59.9386 32.2997 60.7721 31.6642 61.0013 31.4748C61.557 31.0151 62.5732 29.9111 62.5044 29.842C62.4918 29.8295 62.4291 29.8986 62.3651 29.9954ZM64.2916 30.4543C64.0592 30.6782 63.9693 30.7787 64.0915 30.6782C64.3105 30.4983 64.7747 30.0416 64.7347 30.0456C64.7232 30.0469 64.524 30.2307 64.2916 30.4543ZM52.5963 31.0466C51.5679 32.4227 51.2832 33.1145 51.0754 34.7427C51.0575 34.8841 51.0575 34.8841 51.1805 34.8203C51.2482 34.7854 51.3254 34.7568 51.352 34.7568C51.3784 34.7568 51.5545 34.6891 51.7431 34.6064C51.9318 34.5237 52.2762 34.3751 52.5086 34.2758L52.9309 34.096L52.9594 33.615C52.9936 33.0443 53.3364 31.665 53.3508 32.0406C53.3522 32.0753 53.3644 32.0927 53.3783 32.0788C53.4084 32.0487 53.008 30.8308 52.9354 30.7315C52.8919 30.672 52.8404 30.72 52.5963 31.0466ZM63.5406 31.089C63.4333 31.1744 63.3632 31.2435 63.385 31.2424C63.4264 31.2408 63.797 30.9343 63.758 30.934C63.7457 30.9337 63.6481 31.0036 63.5406 31.089ZM62.4908 31.895C61.9983 32.2634 61.8203 32.4232 62.2018 32.1543C62.5644 31.8987 62.9576 31.5972 62.9576 31.5751C62.9576 31.5452 62.9662 31.5396 62.4908 31.895ZM61.7237 32.4491C61.62 32.5227 61.5348 32.5929 61.5348 32.6049C61.5348 32.6169 61.6248 32.5649 61.7349 32.4891C61.8449 32.4134 61.935 32.3424 61.935 32.3314C61.935 32.3008 61.9265 32.3056 61.7237 32.4491ZM39.1051 32.7026C38.8468 32.9891 38.8348 33.0088 39.0309 32.8226C39.2323 32.6313 39.4714 32.3512 39.4276 32.3579C39.4199 32.3589 39.2747 32.5142 39.1051 32.7026ZM61.068 32.9155L60.9346 33.0302L61.0792 32.9344C61.1587 32.8818 61.2235 32.8301 61.2235 32.8197C61.2235 32.7863 61.2048 32.7978 61.068 32.9155ZM60.3113 33.4069C60.0843 33.5573 60.0045 33.6366 60.1817 33.5357C60.3375 33.4466 60.5456 33.2919 60.5114 33.2906C60.4986 33.29 60.4087 33.3423 60.3113 33.4069ZM21.1384 33.7785C21.2339 33.8764 21.3222 33.9565 21.3345 33.9565C21.3465 33.9565 21.2785 33.8764 21.183 33.7785C21.0875 33.6809 20.9994 33.6008 20.9871 33.6008C20.9749 33.6008 21.0429 33.6809 21.1384 33.7785ZM31.5552 33.6774C31.6352 33.6873 31.7553 33.687 31.822 33.6769C31.8887 33.6667 31.8233 33.6587 31.6766 33.659C31.5299 33.6593 31.4752 33.6675 31.5552 33.6774ZM59.2783 34.0506C59.1268 34.1475 59.0777 34.2128 59.2116 34.1392C59.3136 34.0832 59.4734 33.9594 59.4451 33.9586C59.4328 33.9583 59.3578 33.9997 59.2783 34.0506ZM34.1556 34.0317C34.1983 34.0426 34.2684 34.0426 34.3111 34.0317C34.3541 34.0205 34.3189 34.0112 34.2335 34.0112C34.1479 34.0112 34.1129 34.0205 34.1556 34.0317ZM21.8222 34.5285C22.0201 34.7454 22.2173 34.9505 22.2605 34.9844C22.3037 35.018 22.1511 34.8409 21.9214 34.5901C21.692 34.3393 21.4948 34.1344 21.4834 34.1344C21.4719 34.1344 21.6242 34.3118 21.8222 34.5285ZM58.2779 34.6488C58.1117 34.739 58.1218 34.7766 58.2888 34.6901C58.3622 34.6522 58.4222 34.6117 58.4222 34.6C58.4222 34.5714 58.4174 34.573 58.2779 34.6488ZM55.3098 35.0949C54.9307 35.3029 54.2832 35.6434 53.8711 35.8515C53.4589 36.0593 53.1307 36.2386 53.1419 36.25C53.1742 36.2821 55.8784 34.8633 55.9968 34.752C56.0755 34.6781 56 34.7157 55.3098 35.0949ZM57.5664 35.049C57.4001 35.1391 57.4103 35.1768 57.5776 35.0903C57.6509 35.0524 57.711 35.0119 57.711 35.0001C57.711 34.9716 57.7062 34.9732 57.5664 35.049ZM57.255 35.2269C57.0888 35.3171 57.0989 35.3547 57.2662 35.2683C57.3396 35.2301 57.3996 35.1898 57.3996 35.1781C57.3996 35.1495 57.3948 35.1511 57.255 35.2269ZM22.895 35.6685C23.1263 35.9006 23.3255 36.0908 23.3378 36.0908C23.3501 36.0908 23.1708 35.9006 22.9392 35.6685C22.7079 35.4361 22.5086 35.2459 22.4964 35.2459C22.4841 35.2459 22.6634 35.4361 22.895 35.6685ZM56.4104 35.6935C56.3186 35.7421 56.2436 35.7917 56.2436 35.8037C56.2436 35.816 56.3237 35.785 56.4213 35.7351C56.5192 35.6853 56.5992 35.6348 56.5992 35.6231C56.5992 35.594 56.599 35.594 56.4104 35.6935ZM55.8322 36.0049C55.7404 36.0532 55.6655 36.1028 55.6655 36.1151C55.6655 36.1271 55.7455 36.0961 55.8434 36.0462C55.9411 35.9963 56.0211 35.9459 56.0211 35.9342C56.0211 35.9051 56.0208 35.9054 55.8322 36.0049ZM23.4285 36.2082C23.4285 36.2375 24.0229 36.8565 25.3724 38.2318C25.844 38.7122 26.2298 39.0948 26.2298 39.082C26.2298 39.0692 25.8344 38.656 25.351 38.164C24.8679 37.6718 24.2377 37.0243 23.9504 36.7252C23.6633 36.4259 23.4285 36.1932 23.4285 36.2082ZM52.3306 36.6252C52.0003 36.7932 51.7423 36.932 51.7573 36.9333C51.7885 36.936 52.7441 36.4782 52.9087 36.3816C53.1955 36.2132 52.8709 36.3498 52.3306 36.6252ZM54.764 36.5654C54.5983 36.6537 54.4695 36.7327 54.478 36.7409C54.4961 36.7591 55.0873 36.4488 55.0873 36.4213C55.0873 36.3925 55.0887 36.392 54.764 36.5654ZM51.3523 37.0912C51.1933 37.1745 51.0794 37.2436 51.0991 37.2446C51.1349 37.2468 51.6666 36.992 51.7034 36.9549C51.7602 36.8983 51.6084 36.9573 51.3523 37.0912ZM53.5312 37.2025C53.3967 37.2735 53.3023 37.3324 53.3215 37.3337C53.3687 37.3364 53.798 37.1174 53.798 37.0904C53.798 37.0608 53.8041 37.0582 53.5312 37.2025ZM50.5076 37.4914C50.3486 37.5747 50.2385 37.6427 50.263 37.6427C50.2875 37.6427 50.4375 37.5747 50.5965 37.4914C50.7555 37.4082 50.8654 37.3401 50.8411 37.3401C50.8166 37.3401 50.6664 37.4082 50.5076 37.4914ZM49.8407 37.8028C49.7796 37.8377 49.7494 37.8663 49.774 37.8663C49.7983 37.8663 49.8684 37.8377 49.9295 37.8028C49.9906 37.7678 50.0208 37.739 49.9962 37.739C49.9717 37.739 49.9018 37.7678 49.8407 37.8028ZM52.0972 37.8948C51.9248 37.9884 51.9443 38.0207 52.1193 37.9316C52.2871 37.8462 52.3167 37.8241 52.2602 37.8268C52.2378 37.8276 52.1644 37.8583 52.0972 37.8948ZM49.1027 38.1288C48.8069 38.2672 48.431 38.4383 48.2671 38.5087C48.1033 38.5789 47.9766 38.6437 47.9854 38.6525C47.9942 38.6613 48.1599 38.601 48.3541 38.5188C48.8218 38.3206 49.7412 37.8772 49.6849 37.8769C49.6606 37.8767 49.3986 37.9901 49.1027 38.1288ZM51.3969 38.2472C51.2378 38.3305 51.1279 38.3985 51.1522 38.3985C51.1767 38.3985 51.3267 38.3305 51.4857 38.2472C51.6447 38.164 51.7549 38.096 51.7303 38.096C51.7058 38.096 51.5559 38.164 51.3969 38.2472ZM50.6853 38.5807C50.502 38.6762 50.3718 38.7544 50.3964 38.7544C50.4209 38.7544 50.5909 38.6762 50.7744 38.5807C50.9577 38.4855 51.0879 38.4073 51.0634 38.4073C51.0388 38.4073 50.8689 38.4855 50.6853 38.5807ZM47.7285 38.7376C47.6551 38.7717 47.4895 38.8432 47.3603 38.8963C47.2312 38.9497 47.1341 39.0017 47.1448 39.0124C47.1637 39.0313 47.4185 38.9289 47.7731 38.76C47.8707 38.7133 47.9307 38.6752 47.9064 38.6754C47.8819 38.6754 47.8019 38.7034 47.7285 38.7376ZM49.7516 39.0255C49.6659 39.0724 49.616 39.1106 49.6406 39.1106C49.6649 39.1106 49.755 39.0724 49.8407 39.0255C49.926 38.9785 49.9762 38.9404 49.9517 38.9404C49.9274 38.9404 49.8372 38.9785 49.7516 39.0255ZM46.8393 39.1151C46.74 39.1639 46.7104 39.1903 46.7726 39.1751C46.9025 39.1431 47.1266 39.0292 47.0615 39.0284C47.037 39.0281 46.9369 39.0671 46.8393 39.1151ZM26.2805 39.1372C26.2872 39.1821 27.4747 40.3509 27.4747 40.3125C27.4747 40.301 27.2047 40.0219 26.8744 39.6924C26.5444 39.3629 26.277 39.1132 26.2805 39.1372ZM49.3404 39.2063C49.2487 39.2546 49.1737 39.3043 49.1737 39.3165C49.1737 39.3363 49.5248 39.1722 49.5701 39.1311C49.6214 39.085 49.4877 39.1284 49.3404 39.2063ZM46.4391 39.2728C46.3657 39.3077 46.2155 39.3766 46.1056 39.4256C45.9954 39.4747 45.9554 39.5022 46.0165 39.4867C46.156 39.4515 46.6771 39.2114 46.6168 39.2101C46.5925 39.2095 46.5125 39.2378 46.4391 39.2728ZM45.0731 39.8386C44.7132 39.988 44.4262 40.118 44.4355 40.127C44.4537 40.1452 45.1711 39.8618 45.572 39.6783C46.0256 39.4705 45.7324 39.5649 45.0731 39.8386ZM48.0841 39.7789C47.9865 39.8253 47.9265 39.8632 47.9507 39.8634C48.0116 39.8637 48.3624 39.6996 48.3066 39.697C48.2821 39.6956 48.182 39.7327 48.0841 39.7789ZM53.3743 39.7975C53.326 39.8309 53.2366 39.8733 53.1755 39.8917C53.1144 39.9101 52.9282 39.9928 52.7617 40.0755C52.5953 40.1582 52.4411 40.226 52.4189 40.226C52.3813 40.226 52.1305 40.3367 51.388 40.6809C51.1143 40.8079 51.0943 40.8263 51.1397 40.9114C51.2808 41.1776 52.5582 42.3168 52.7143 42.3155C52.7908 42.315 53.3257 40.7993 53.4655 40.1868C53.4967 40.0494 53.5368 39.892 53.5541 39.837C53.5915 39.7196 53.512 39.7023 53.3743 39.7975ZM47.6172 39.9814C47.5562 40.0163 47.5263 40.0451 47.5505 40.0451C47.5751 40.0451 47.6453 40.0163 47.7064 39.9814C47.7675 39.9464 47.7973 39.9179 47.7731 39.9179C47.7485 39.9179 47.6786 39.9464 47.6172 39.9814ZM43.9158 40.3044C43.7018 40.3917 43.5343 40.4709 43.5434 40.48C43.5626 40.4992 44.3715 40.1815 44.3715 40.1548C44.3715 40.1233 44.3104 40.1433 43.9158 40.3044ZM46.9948 40.2482C46.9337 40.2831 46.9036 40.3119 46.9281 40.3119C46.9527 40.3119 47.0226 40.2831 47.0837 40.2482C47.145 40.2132 47.1749 40.1847 47.1504 40.1847C47.1261 40.1847 47.0559 40.2132 46.9948 40.2482ZM27.6259 40.4482C27.747 40.5958 28.3196 41.1403 28.3196 41.108C28.3196 41.0997 28.1347 40.913 27.9087 40.6929C27.6828 40.4728 27.5555 40.3626 27.6259 40.4482ZM43.2598 40.5643C43.1741 40.6017 42.7782 40.7532 42.3796 40.9013C41.9811 41.0493 41.6628 41.1782 41.6718 41.1875C41.6983 41.2139 43.2638 40.6361 43.4319 40.5379C43.5452 40.4717 43.4324 40.4888 43.2598 40.5643ZM44.7717 41.1819C44.7106 41.2169 44.6804 41.2457 44.705 41.2457C44.7293 41.2457 44.7994 41.2169 44.8605 41.1819C44.9216 41.147 44.9518 41.1184 44.9272 41.1184C44.9027 41.1184 44.8328 41.147 44.7717 41.1819ZM28.8086 41.5872C29.0655 41.8313 29.3755 42.1181 29.498 42.2243C29.6202 42.3307 29.53 42.2347 29.2979 42.0111C29.0655 41.7873 28.7552 41.5007 28.6085 41.374C28.4618 41.2473 28.5519 41.3431 28.8086 41.5872ZM41.4811 41.2361C41.4445 41.2497 41.2485 41.3206 41.0454 41.3932C40.8421 41.466 40.6834 41.533 40.6922 41.5418C40.709 41.5584 41.5761 41.2577 41.6102 41.2233C41.6356 41.1979 41.5646 41.2051 41.4811 41.2361ZM39.8684 41.8137C39.4823 41.95 39.1744 42.0693 39.1838 42.0786C39.2016 42.0965 40.5935 41.6176 40.63 41.581C40.6765 41.5346 40.5404 41.5762 39.8684 41.8137ZM43.2376 41.8017C42.9455 41.9423 43.0023 41.9465 43.3097 41.807C43.4412 41.7472 43.5287 41.6976 43.5044 41.6966C43.4799 41.6955 43.3598 41.7427 43.2376 41.8017ZM38.5325 42.2795C38.317 42.3534 38.1486 42.422 38.1582 42.4313C38.1769 42.4502 38.9461 42.1978 38.9831 42.1608C39.0256 42.1183 38.925 42.1448 38.5325 42.2795ZM29.8091 42.5241C29.9825 42.6986 30.2821 42.9401 30.165 42.8107C30.0916 42.7298 29.9715 42.622 29.8982 42.5714C29.8248 42.5207 29.7848 42.4996 29.8091 42.5241ZM37.5321 42.6156C37.3531 42.6759 37.2143 42.7325 37.2234 42.7418C37.2447 42.7629 37.9685 42.542 37.9685 42.5143C37.9685 42.4793 37.8698 42.5023 37.5321 42.6156ZM41.281 42.562C41.17 42.6156 41.1663 42.6218 41.2589 42.5991C41.3848 42.5682 41.5264 42.4961 41.459 42.4972C41.4344 42.4975 41.3544 42.5265 41.281 42.562ZM36.4655 42.971C36.2133 43.0564 36.0151 43.134 36.0247 43.1439C36.0421 43.1612 36.9956 42.8571 37.031 42.8229C37.0775 42.7781 36.8878 42.8277 36.4655 42.971ZM46.2166 42.9625C46.0944 43.019 45.8041 43.1487 45.572 43.2509C45.3397 43.353 44.9995 43.5027 44.816 43.5836C44.6327 43.6644 44.3064 43.8122 44.0911 43.9125C43.8755 44.0125 43.6816 44.0945 43.66 44.0945C43.6381 44.0945 43.4809 44.1644 43.3102 44.25C43.1397 44.3356 42.9775 44.4058 42.9498 44.4058C42.9218 44.4058 42.7673 44.4757 42.6059 44.5613C42.4445 44.647 42.2969 44.7169 42.2775 44.7169C42.2582 44.7169 42.0723 44.7969 41.8645 44.8948C41.6566 44.9927 41.4742 45.0728 41.4592 45.0728C41.444 45.0728 41.3106 45.1328 41.1628 45.2062C41.015 45.2795 40.875 45.3396 40.8515 45.3396C40.828 45.3396 40.645 45.4169 40.4446 45.5119C39.9817 45.7309 39.4111 45.9841 39.2246 46.053C39.0466 46.1186 39.0378 46.2288 39.2024 46.3269C39.2697 46.367 39.3647 46.4363 39.4135 46.4812C39.4626 46.526 39.545 46.5924 39.597 46.629C39.6491 46.6658 39.927 46.8757 40.2146 47.0958C41.1327 47.7983 41.1772 47.8167 41.459 47.607C41.4835 47.5889 41.6636 47.4888 41.8591 47.3848C42.2449 47.1796 43.2718 46.5097 43.446 46.3499C43.5052 46.2955 43.7026 46.1314 43.8846 45.9852C44.5401 45.4591 45.0884 44.8895 45.8196 43.976C46.156 43.5553 46.5151 42.9262 46.4506 42.8699C46.4442 42.8643 46.3391 42.9059 46.2166 42.9625ZM39.8585 43.0777C39.616 43.1759 39.5255 43.2365 39.7024 43.182C39.866 43.1316 40.1765 42.9891 40.125 42.9883C40.1005 42.9881 39.9807 43.0281 39.8585 43.0777ZM26.5854 43.1455C26.0124 43.3213 24.3738 43.4832 24.2414 43.3773C24.1942 43.3392 24.2142 43.3997 24.2951 43.5387C24.3663 43.6609 24.4725 43.8511 24.5309 43.9611C24.5896 44.071 24.6587 44.1868 24.6843 44.218C24.7171 44.258 24.7153 44.3092 24.6782 44.3909C24.6253 44.5069 24.6253 44.5069 24.794 44.4778C24.8865 44.4618 25.1125 44.429 25.2961 44.405C25.4793 44.381 25.9796 44.2927 26.4075 44.2086C26.8357 44.1249 27.3039 44.043 27.4482 44.0267C27.9549 43.9701 27.9522 43.9258 27.4192 43.5278C26.7959 43.0622 26.8202 43.0735 26.5854 43.1455ZM31.0654 43.6641C31.7243 44.3015 31.7388 44.3733 31.2401 44.5368C31.1467 44.5675 31.0811 44.6032 31.0942 44.6163C31.1654 44.6875 31.6544 44.3938 31.6544 44.2796C31.6544 44.211 31.0648 43.6028 30.6761 43.2706C30.5905 43.1972 30.7658 43.3744 31.0654 43.6641ZM35.6341 43.2495C35.5117 43.2946 35.4418 43.3317 35.4783 43.3317C35.5151 43.3317 35.6451 43.2946 35.7675 43.2495C35.8897 43.2044 35.9596 43.1676 35.9231 43.1676C35.8863 43.1676 35.7563 43.2044 35.6341 43.2495ZM35.0781 43.4275C34.813 43.5387 34.9053 43.5403 35.1894 43.4296C35.3116 43.3819 35.3818 43.3429 35.3449 43.3432C35.3084 43.3434 35.1883 43.3813 35.0781 43.4275ZM32.5028 43.5243C32.7888 43.7895 33.0524 44.0008 33.0724 43.9808C33.0834 43.9699 33.0839 43.9549 33.0735 43.9472C33.0634 43.9395 32.895 43.8079 32.6995 43.6548C32.5036 43.5017 32.4153 43.443 32.5028 43.5243ZM38.8799 43.4512C38.7689 43.5049 38.7652 43.511 38.8578 43.4883C38.9837 43.4576 39.1253 43.3853 39.0578 43.3864C39.0333 43.3867 38.9533 43.416 38.8799 43.4512ZM34.5891 43.583C34.5035 43.6161 34.4635 43.643 34.5003 43.643C34.5368 43.643 34.6369 43.6161 34.7225 43.583C34.8082 43.5502 34.8482 43.5233 34.8114 43.5233C34.7748 43.5233 34.6748 43.5502 34.5891 43.583ZM34.1222 43.717C34.0243 43.7487 33.7893 43.8095 33.5999 43.8522C33.4102 43.8946 33.2552 43.9432 33.2552 43.96C33.2552 43.9917 34.1292 43.7794 34.3223 43.7007C34.4808 43.6361 34.3341 43.6481 34.1222 43.717ZM37.5766 43.9026C37.4713 43.9397 37.3928 43.9781 37.4024 43.9877C37.4227 44.008 37.8352 43.8728 37.8352 43.8458C37.8352 43.8178 37.7845 43.829 37.5766 43.9026ZM17.1006 44.366C16.9125 44.5125 16.7588 44.6427 16.7588 44.6552C16.7588 44.6675 16.8738 44.5901 17.0144 44.4829C17.3607 44.2188 17.4031 44.1953 17.3679 44.2873C17.3271 44.3938 17.3599 44.3783 17.4423 44.2524C17.572 44.0544 17.4468 44.0961 17.1006 44.366ZM36.7901 44.1833C36.7341 44.2076 36.7258 44.2217 36.768 44.2217C36.8045 44.2217 36.8747 44.2044 36.9235 44.1833C36.9796 44.1593 36.9878 44.1451 36.9457 44.1451C36.9091 44.1451 36.839 44.1625 36.7901 44.1833ZM36.3233 44.3391C36.2376 44.3719 36.1976 44.3997 36.2344 44.4002C36.271 44.401 36.3611 44.3743 36.4345 44.3407C36.6061 44.262 36.5263 44.2609 36.3233 44.3391ZM30.6761 44.7406C30.5171 44.7966 30.2882 44.8681 30.1674 44.8991C30.0462 44.9303 29.9675 44.9626 29.9923 44.9706C30.0521 44.9906 30.7887 44.7758 30.937 44.6953C31.1006 44.6064 31.0144 44.6214 30.6761 44.7406ZM16.2028 45.0989C15.6231 45.6034 14.9841 46.2253 14.7904 46.4734C14.7139 46.5711 14.8142 46.4793 15.0129 46.2696C15.212 46.0596 15.61 45.6794 15.8976 45.4247C16.6198 44.7854 16.7399 44.675 16.7142 44.6742C16.702 44.6737 16.472 44.8649 16.2028 45.0989ZM34.9226 44.8743C34.8114 44.9276 34.8076 44.9338 34.9005 44.9114C35.0264 44.8804 35.1681 44.8084 35.1006 44.8092C35.076 44.8097 34.996 44.8388 34.9226 44.8743ZM34.5883 45.0298C34.4973 45.1998 34.6934 45.3993 35.7897 46.2514C35.9975 46.4131 36.1976 46.5697 36.2344 46.5993C36.6274 46.9168 38.5261 48.342 39.3054 48.9041C40.0044 49.4084 40.0583 49.4449 40.0583 49.4161C40.0583 49.4052 39.8131 49.2203 39.5135 49.0047C38.8826 48.5509 37.4793 47.5051 36.8347 47.0086C36.59 46.82 36.28 46.5836 36.1453 46.4828C35.397 45.922 34.5891 45.223 34.5891 45.1363C34.5891 45.104 34.6337 45.0466 34.6878 45.0085C34.7673 44.953 34.7719 44.9394 34.7119 44.9394C34.6705 44.9394 34.615 44.9799 34.5883 45.0298ZM29.1866 45.1627C28.942 45.2318 28.7721 45.2897 28.8086 45.2915C28.8844 45.2953 29.7047 45.0808 29.7365 45.049C29.7781 45.0074 29.6218 45.0397 29.1866 45.1627ZM17.1729 45.1395C17.1867 45.1883 17.2214 45.3182 17.2497 45.4281C17.3807 45.9337 17.9836 46.5401 18.355 46.5401C18.3942 46.5398 18.3046 46.4825 18.1562 46.4123C17.664 46.1794 17.4068 45.8745 17.2766 45.3684C17.2398 45.2256 17.1955 45.0954 17.1787 45.0794C17.1616 45.0634 17.1592 45.0904 17.1729 45.1395ZM28.1416 45.43C27.9826 45.4748 27.9029 45.5114 27.9639 45.5116C28.025 45.5119 28.1851 45.4751 28.3196 45.4303C28.6355 45.3249 28.5159 45.3246 28.1416 45.43ZM27.608 45.5618C27.5187 45.5903 27.5144 45.5975 27.5859 45.5986C27.6347 45.5994 27.7148 45.5829 27.7639 45.5618C27.877 45.513 27.7601 45.513 27.608 45.5618ZM33.3219 45.6013C33.3707 45.6594 33.6009 45.8737 33.8333 46.0772C34.0654 46.2805 34.3608 46.5396 34.4891 46.6532C34.6174 46.7666 34.7225 46.8504 34.7225 46.8397C34.7225 46.829 34.4984 46.622 34.2247 46.38C33.951 46.1378 33.6156 45.8398 33.4798 45.7173C33.344 45.5951 33.2731 45.5429 33.3219 45.6013ZM26.8522 45.7432C26.6932 45.7894 26.6348 45.8171 26.722 45.8051C26.9064 45.7795 27.3068 45.6594 27.2079 45.6594C27.1713 45.6594 27.0112 45.6971 26.8522 45.7432ZM32.0325 45.7157C31.8607 45.7944 31.9404 45.7955 32.1435 45.7173C32.2291 45.6845 32.2691 45.6568 32.2326 45.6562C32.1958 45.6554 32.1059 45.6821 32.0325 45.7157ZM26.2298 45.8731C26.0802 45.9209 26.2418 45.9209 26.4299 45.8731C26.5497 45.8425 26.5518 45.839 26.4521 45.8382C26.391 45.8379 26.2909 45.8534 26.2298 45.8731ZM25.5183 46.0287C25.4081 46.0607 25.3481 46.0882 25.3849 46.09C25.4214 46.0922 25.5516 46.0658 25.6738 46.0319C25.7963 45.9977 25.8563 45.97 25.8072 45.9703C25.7584 45.9705 25.6282 45.9967 25.5183 46.0287ZM30.8541 46.0732C30.7684 46.106 30.7284 46.133 30.7652 46.133C30.8018 46.133 30.9018 46.106 30.9875 46.0732C31.0731 46.0402 31.1131 46.0132 31.0763 46.0132C31.0398 46.0132 30.9397 46.0402 30.8541 46.0732ZM24.8292 46.1631C24.5325 46.2394 24.7131 46.2392 25.0514 46.1629C25.2075 46.1277 25.263 46.1034 25.1848 46.1044C25.1114 46.1052 24.9514 46.1317 24.8292 46.1631ZM30.476 46.1842C30.42 46.2085 30.4117 46.2226 30.4539 46.2226C30.4904 46.2226 30.5606 46.2053 30.6094 46.1842C30.6655 46.1602 30.6737 46.1461 30.6318 46.1461C30.595 46.1461 30.5251 46.1634 30.476 46.1842ZM24.1176 46.2944C23.8196 46.371 23.9594 46.3739 24.2956 46.2981C24.4423 46.2651 24.5122 46.2378 24.4511 46.2376C24.39 46.2373 24.2398 46.2629 24.1176 46.2944ZM23.2506 46.4305C23.0673 46.463 22.7869 46.5089 22.6282 46.5324L22.339 46.5751L22.6903 46.5508C22.8837 46.5374 23.2138 46.4918 23.424 46.4497C23.8733 46.3592 23.7361 46.344 23.2506 46.4305ZM29.7202 46.4067C29.6642 46.4307 29.6559 46.4449 29.6981 46.4449C29.7346 46.4449 29.8048 46.4275 29.8536 46.4067C29.9096 46.3824 29.9179 46.3683 29.8758 46.3683C29.8392 46.3683 29.769 46.3856 29.7202 46.4067ZM29.2312 46.5401C29.1752 46.5641 29.1669 46.5783 29.2088 46.5783C29.2456 46.5783 29.3155 46.5609 29.3646 46.5401C29.4206 46.5158 29.4289 46.5017 29.3867 46.5017C29.3499 46.5017 29.28 46.519 29.2312 46.5401ZM21.3164 46.6735C21.1029 46.7026 21.1011 46.7042 21.2718 46.7077C21.3697 46.7095 21.5397 46.6954 21.6498 46.6756C21.9132 46.6287 21.6544 46.6271 21.3164 46.6735ZM28.5197 46.7413C28.4218 46.7736 28.3817 46.8 28.4308 46.8C28.4797 46.8 28.5896 46.773 28.6752 46.7402C28.8748 46.6634 28.7536 46.6642 28.5197 46.7413ZM19.7471 46.7509C19.9109 46.7594 20.191 46.7594 20.3695 46.7509C20.548 46.7426 20.4138 46.7354 20.0713 46.7354C19.729 46.7354 19.583 46.7423 19.7471 46.7509ZM26.9189 47.1625C26.8629 47.1865 26.8546 47.2007 26.8968 47.2007C26.9333 47.2007 27.0035 47.1836 27.0523 47.1625C27.1084 47.1385 27.1166 47.1244 27.0745 47.1244C27.0379 47.1244 26.9678 47.1415 26.9189 47.1625ZM26.0519 47.3848C25.9625 47.4136 25.9582 47.4208 26.0297 47.4219C26.0785 47.4224 26.1586 47.4058 26.2074 47.3848C26.3208 47.3362 26.2039 47.3362 26.0519 47.3848ZM25.585 47.4947C25.3462 47.5734 25.4401 47.5766 25.7184 47.4992C25.8406 47.4651 25.9006 47.4371 25.8518 47.4368C25.803 47.4365 25.6829 47.4624 25.585 47.4947ZM14.1192 47.6166C14.1042 47.6726 14.0944 47.8084 14.0976 47.9183C14.1024 48.0934 14.1072 48.0822 14.1363 47.8295C14.1712 47.5256 14.1651 47.4459 14.1192 47.6166ZM35.8785 47.8034C35.8785 47.814 36.0338 47.9482 36.2232 48.1014C36.4126 48.2545 36.5402 48.3457 36.5063 48.3041C36.4364 48.218 35.8785 47.7732 35.8785 47.8034ZM23.384 47.985C23.2738 48.0171 23.2138 48.0448 23.2506 48.0467C23.2871 48.0485 23.4173 48.0224 23.5395 47.9882C23.662 47.9541 23.722 47.9266 23.6729 47.9269C23.6241 47.9269 23.4939 47.9533 23.384 47.985ZM32.8771 48.0747C32.7061 48.1579 32.5498 48.2268 32.5298 48.2278C32.51 48.2289 32.3238 48.3097 32.116 48.4076C31.9082 48.5053 31.7195 48.5853 31.6971 48.5853C31.6745 48.5853 31.5106 48.6531 31.3327 48.7361C31.155 48.8188 30.8495 48.9564 30.654 49.0421C29.8859 49.3777 29.6295 49.4951 29.5868 49.5314C29.5623 49.5522 29.5986 49.5479 29.6677 49.522C29.8317 49.4599 29.9014 49.4623 29.9726 49.5324C30.0545 49.6127 31.215 50.273 31.5656 50.4387C31.9994 50.6439 32.7955 50.9864 32.839 50.9867C32.8601 50.987 33.0319 51.047 33.2208 51.1206C33.4099 51.194 33.6922 51.281 33.8483 51.3138L34.1321 51.3733L34.4915 51.1017C34.7996 50.8688 35.5578 50.3904 35.8617 50.2367C35.9135 50.2106 35.9727 50.2037 35.9935 50.221C36.0143 50.2386 36.002 50.2146 35.966 50.1679C35.8999 50.0815 34.6689 49.0671 34.4715 48.9364C34.4122 48.8969 34.3394 48.8358 34.3095 48.8004C34.2799 48.7651 34.1057 48.6179 33.9222 48.4733C33.7389 48.3287 33.5137 48.1446 33.4219 48.0643C33.2216 47.8893 33.2602 47.8887 32.8771 48.0747ZM22.05 48.2297C21.962 48.258 21.9575 48.2652 22.0279 48.2652C22.0767 48.2652 22.1669 48.2492 22.228 48.2297C22.316 48.2014 22.3206 48.1942 22.2501 48.1942C22.2013 48.1942 22.1111 48.2102 22.05 48.2297ZM21.005 48.4076C20.886 48.4378 20.8836 48.4415 20.9829 48.4415C21.044 48.4415 21.1542 48.4263 21.2275 48.4076C21.3465 48.3772 21.3489 48.3735 21.2497 48.3735C21.1886 48.3735 21.0784 48.389 21.005 48.4076ZM36.59 48.3746C36.59 48.385 36.6952 48.4813 36.8235 48.5883C36.9518 48.6955 37.0289 48.7478 36.9945 48.7048C36.9254 48.6184 36.59 48.3444 36.59 48.3746ZM20.3933 48.4946C20.3012 48.5125 20.2127 48.5405 20.1964 48.5568C20.1673 48.5859 20.3172 48.5645 20.6272 48.4957C20.8321 48.4501 20.6278 48.4493 20.3933 48.4946ZM14.4847 48.5827C14.5426 48.6331 14.6109 48.6744 14.6368 48.6744C14.6914 48.6744 14.6888 48.672 14.5132 48.5693L14.3798 48.4911L14.4847 48.5827ZM18.4038 48.7649C18.3321 48.7886 18.3795 48.7929 18.5372 48.7766C18.6717 48.7627 18.7901 48.7441 18.8003 48.735C18.836 48.7038 18.514 48.7281 18.4038 48.7649ZM37.0791 48.7771C37.0791 48.7881 37.1527 48.8532 37.2423 48.9217C37.3323 48.99 37.3915 49.0234 37.3744 48.9956C37.3392 48.9388 37.0791 48.7462 37.0791 48.7771ZM17.4813 48.8396C17.5485 48.8497 17.6587 48.8497 17.7259 48.8396C17.7931 48.8294 17.7379 48.8212 17.6035 48.8212C17.469 48.8212 17.414 48.8294 17.4813 48.8396ZM15.9918 48.8852C16.1446 48.8937 16.3946 48.8937 16.5475 48.8852C16.7004 48.8764 16.5752 48.8694 16.2695 48.8694C15.964 48.8694 15.8389 48.8764 15.9918 48.8852ZM37.8352 49.3825C37.9205 49.4588 38.0507 49.5628 38.1241 49.6133C38.2367 49.6912 38.2332 49.6837 38.1019 49.5668C38.0163 49.4905 37.8861 49.3868 37.8127 49.3361C37.7004 49.2584 37.7039 49.2656 37.8352 49.3825ZM40.1189 49.4647C40.2365 49.6551 44.0569 52.1699 45.4162 52.9519C46.4298 53.5348 46.6317 53.6444 47.2309 53.936C49.7649 55.1694 50.9959 55.4519 51.923 55.0128C52.3301 54.8202 52.6404 54.5283 52.7313 54.2533C52.7593 54.1684 52.797 54.0991 52.8148 54.0991C52.9365 54.0991 53.338 54.6868 53.7769 55.5074C53.9836 55.8945 54.1533 56.1931 54.1533 56.1709C54.1547 56.0023 53.2948 54.5438 53.0043 54.2212C52.8122 54.0083 52.7708 54.0118 52.6732 54.2493C52.3552 55.0227 51.2824 55.3519 50.0957 55.0403C49.7089 54.9386 48.6631 54.5702 48.575 54.5043C48.5497 54.4856 48.4288 54.4333 48.3066 54.3885C48.0953 54.3112 46.4164 53.4734 46.0389 53.2571C44.9718 52.6453 44.4817 52.3513 43.7045 51.8551C42.8401 51.3036 40.9198 50.0148 40.351 49.6045C40.2064 49.5001 40.1018 49.4372 40.1189 49.4647ZM38.4893 49.8803C38.5541 49.9604 39.2579 50.5099 39.2579 50.4803C39.2579 50.4691 39.0728 50.3144 38.8465 50.1364C38.6203 49.9588 38.4597 49.8432 38.4893 49.8803ZM39.494 50.6617C39.5314 50.722 39.8804 51.0038 39.8804 50.9734C39.8804 50.9621 39.7864 50.8757 39.6712 50.7813C39.5562 50.6871 39.4764 50.6332 39.494 50.6617ZM40.1471 51.1766C40.1471 51.1865 40.2723 51.2908 40.4251 51.4088C40.578 51.5264 40.6679 51.583 40.625 51.5344C40.5439 51.4424 40.1471 51.1454 40.1471 51.1766ZM40.7253 51.623C40.7253 51.6339 40.7986 51.699 40.8886 51.7673C40.9782 51.8359 41.0377 51.8692 41.0206 51.8415C40.9854 51.7847 40.7253 51.592 40.7253 51.623ZM36.8019 51.9517C36.8571 51.9623 36.9371 51.9621 36.9796 51.9509C37.0222 51.9397 36.9769 51.9311 36.879 51.9314C36.7813 51.9319 36.7464 51.941 36.8019 51.9517ZM41.3701 52.1189C41.4435 52.1832 41.5635 52.2766 41.6369 52.3265L41.7703 52.4167L41.6369 52.2996C41.5635 52.2353 41.4435 52.1419 41.3701 52.0923L41.2367 52.0018L41.3701 52.1189ZM41.9037 52.5197C42.0672 52.6637 42.4149 52.9102 42.4149 52.8825C42.4149 52.8716 42.31 52.7854 42.1817 52.6915C41.841 52.4418 41.7527 52.3871 41.9037 52.5197ZM42.504 52.9591C42.504 52.9713 42.564 53.0242 42.6374 53.0765C42.7107 53.1285 42.7708 53.1613 42.7708 53.149C42.7708 53.137 42.7107 53.0842 42.6374 53.0319C42.564 52.9796 42.504 52.9468 42.504 52.9591ZM42.9687 53.2952C42.9831 53.3184 43.1259 53.4291 43.2859 53.5409C43.446 53.653 43.5653 53.7255 43.5508 53.7023C43.5364 53.6791 43.3937 53.5684 43.2336 53.4566C43.0736 53.3446 42.9543 53.272 42.9687 53.2952ZM43.9566 54.0137C44.0119 54.0804 44.2824 54.2506 44.2824 54.2186C44.2824 54.2082 44.1975 54.1436 44.0935 54.075C43.9894 54.0067 43.9281 53.979 43.9566 54.0137ZM44.3467 54.273C44.3803 54.3272 44.7717 54.6028 44.7717 54.5723C44.7717 54.5611 44.6695 54.4787 44.5446 54.3891C44.4198 54.2994 44.3307 54.2471 44.3467 54.273ZM45.1719 54.8533C45.233 54.9045 45.3229 54.9672 45.372 54.9925C45.4325 55.024 45.4256 55.0091 45.3495 54.9456C45.2884 54.8944 45.1985 54.8317 45.1494 54.8063C45.0889 54.7748 45.0958 54.7898 45.1719 54.8533ZM45.7497 55.222C45.7497 55.2414 45.8394 55.3041 46.2057 55.5419C46.2729 55.5853 46.3279 55.6115 46.3279 55.5997C46.3279 55.5803 46.2385 55.5173 45.8722 55.2799C45.8049 55.2361 45.7497 55.21 45.7497 55.222ZM47.3062 56.2259C47.4332 56.331 47.7506 56.5162 47.7506 56.4852C47.7506 56.4737 47.6839 56.4252 47.6023 56.3769C47.5207 56.3289 47.3958 56.2544 47.3246 56.2118L47.1949 56.1339L47.3062 56.2259ZM48.3288 56.8264C48.3288 56.8566 48.6484 57.0404 48.6673 57.0212C48.6761 57.0124 48.6036 56.9601 48.5062 56.9054C48.4085 56.8505 48.3288 56.815 48.3288 56.8264ZM54.4257 56.967C54.4249 56.9916 54.4521 57.1116 54.486 57.2338C54.5218 57.3624 54.5476 57.4094 54.5474 57.3451C54.5471 57.24 54.4289 56.8726 54.4257 56.967ZM48.729 57.0543C48.729 57.0663 48.809 57.1172 48.9069 57.1671C49.0046 57.217 49.0846 57.248 49.0846 57.2357C49.0846 57.2234 49.0046 57.1725 48.9069 57.1226C48.809 57.0727 48.729 57.042 48.729 57.0543ZM49.2524 57.3451C49.3324 57.3939 49.4063 57.4339 49.4167 57.4339C49.433 57.4339 49.6515 57.5334 50.4409 57.9008C50.5631 57.9576 50.7432 58.0286 50.8411 58.0585C50.9388 58.0884 51.0951 58.1513 51.188 58.198C51.367 58.2879 51.8957 58.4517 52.4862 58.6001C53.6579 58.8946 54.5775 58.5214 54.5508 57.7623C54.5492 57.7162 54.5191 57.7856 54.4839 57.9165C54.2598 58.7497 53.5018 58.8703 51.7439 58.3525C51.5313 58.2898 51.2811 58.2004 51.188 58.1535C51.0951 58.1068 50.9388 58.0438 50.8411 58.0134C50.7432 57.9832 50.533 57.8981 50.3742 57.8245C50.2152 57.7506 49.9351 57.6215 49.7516 57.5372C49.5683 57.4529 49.365 57.355 49.3002 57.32C49.1227 57.224 49.0857 57.2434 49.2524 57.3451Z" fill="#FBB070"/>
</svg>
